<?xml version="1.0" encoding="UTF-8" standalone="no"?>
<!-- Created with Inkscape (http://www.inkscape.org/) -->
<svg
   xmlns:dc="http://purl.org/dc/elements/1.1/"
   xmlns:cc="http://web.resource.org/cc/"
   xmlns:rdf="http://www.w3.org/1999/02/22-rdf-syntax-ns#"
   xmlns:svg="http://www.w3.org/2000/svg"
   xmlns="http://www.w3.org/2000/svg"
   xmlns:sodipodi="http://sodipodi.sourceforge.net/DTD/sodipodi-0.dtd"
   xmlns:inkscape="http://www.inkscape.org/namespaces/inkscape"
   width="740"
   height="400"
   id="svg2"
   sodipodi:version="0.32"
   inkscape:version="0.44"
   sodipodi:docbase="/home/mattb"
   sodipodi:docname="bjt_equilibrium_bands_v2.svg"
   version="1.0">
  <defs
     id="defs4">
    <marker
       inkscape:stockid="TriangleInL"
       orient="auto"
       refY="0"
       refX="0"
       id="TriangleInL"
       style="overflow:visible">
      <path
         id="path12682"
         d="M 5.77,0 L -2.88,5 L -2.88,-5 L 5.77,0 z "
         style="fill-rule:evenodd;stroke:black;stroke-width:1pt;marker-start:none"
         transform="scale(-0.8,-0.8)" />
    </marker>
    <marker
       inkscape:stockid="TriangleOutL"
       orient="auto"
       refY="0"
       refX="0"
       id="TriangleOutL"
       style="overflow:visible">
      <path
         id="path12673"
         d="M 5.77,0 L -2.88,5 L -2.88,-5 L 5.77,0 z "
         style="fill-rule:evenodd;stroke:black;stroke-width:1pt;marker-start:none"
         transform="scale(0.8,0.8)" />
    </marker>
  </defs>
  <sodipodi:namedview
     id="base"
     pagecolor="#ffffff"
     bordercolor="#666666"
     borderopacity="1.0"
     gridtolerance="10000"
     guidetolerance="10"
     objecttolerance="10"
     inkscape:pageopacity="0.0"
     inkscape:pageshadow="2"
     inkscape:zoom="1.1095654"
     inkscape:cx="361.23646"
     inkscape:cy="227.95275"
     inkscape:document-units="px"
     inkscape:current-layer="layer1"
     inkscape:window-width="882"
     inkscape:window-height="615"
     inkscape:window-x="5"
     inkscape:window-y="64"
     showgrid="true"
     showguides="false"
     inkscape:grid-points="true"
     width="740px"
     height="400px" />
  <metadata
     id="metadata7">
    <rdf:RDF>
      <cc:Work
         rdf:about="">
        <dc:format>image/svg+xml</dc:format>
        <dc:type
           rdf:resource="http://purl.org/dc/dcmitype/StillImage" />
        <dc:title>BJT Equilibrium Energy Band Diagram</dc:title>
        <dc:date>2006-08-22</dc:date>
        <dc:creator>
          <cc:Agent>
            <dc:title>Matt Britt</dc:title>
          </cc:Agent>
        </dc:creator>
        <dc:rights>
          <cc:Agent>
            <dc:title />
          </cc:Agent>
        </dc:rights>
        <cc:license
           rdf:resource="http://creativecommons.org/licenses/by-sa/2.5/" />
        <dc:description>Energy band alignment diagram for a simple bipolar junction transistor under equilibh</dc:description>
      </cc:Work>
      <cc:License
         rdf:about="http://creativecommons.org/licenses/by-sa/2.5/">
        <cc:permits
           rdf:resource="http://web.resource.org/cc/Reproduction" />
        <cc:permits
           rdf:resource="http://web.resource.org/cc/Distribution" />
        <cc:requires
           rdf:resource="http://web.resource.org/cc/Notice" />
        <cc:requires
           rdf:resource="http://web.resource.org/cc/Attribution" />
        <cc:permits
           rdf:resource="http://web.resource.org/cc/DerivativeWorks" />
        <cc:requires
           rdf:resource="http://web.resource.org/cc/ShareAlike" />
      </cc:License>
    </rdf:RDF>
  </metadata>
  <g
     inkscape:label="Layer 1"
     inkscape:groupmode="layer"
     id="layer1"
     transform="translate(-10,-46.88367)">
    <g
       id="g2930">
      <path
         style="fill:black;fill-opacity:1;fill-rule:evenodd;stroke:none;stroke-width:2;stroke-linecap:butt;stroke-linejoin:miter;stroke-miterlimit:4;stroke-opacity:1"
         d="M 49.53125,96.21875 C 49.53125,192.88541 49.53125,289.55209 49.53125,386.21875 L 49.53125,387.21875 L 50.53125,387.21875 C 273.86459,387.21875 497.19791,387.21875 720.53125,387.21875 L 720.53125,385.21875 C 497.53124,385.21875 274.53126,385.21875 51.53125,385.21875 C 51.53125,288.88542 51.53125,192.55208 51.53125,96.21875 L 49.53125,96.21875 z "
         id="path11711" />
      <path
         style="fill-rule:evenodd;stroke:black;stroke-width:1.6pt;marker-start:none"
         d="M 50.529999,86.998598 L 58.529999,100.8386 L 42.529999,100.8386 L 50.529999,86.998598 z "
         id="path2936" />
      <path
         style="fill-rule:evenodd;stroke:black;stroke-width:1.6pt;marker-start:none"
         d="M 729.76203,386.23059 L 715.92203,394.23059 L 715.92203,378.23059 L 729.76203,386.23059 z "
         id="path2938" />
    </g>
    <path
       style="fill:none;fill-rule:evenodd;stroke:black;stroke-width:2;stroke-linecap:butt;stroke-linejoin:miter;stroke-miterlimit:4;stroke-dasharray:8, 4, 2, 4;stroke-dashoffset:0;stroke-opacity:1"
       d="M 51.762,224.23059 L 711.762,224.23059"
       id="path12835"
       sodipodi:nodetypes="cc" />
    <path
       style="fill:none;fill-rule:evenodd;stroke:black;stroke-width:2;stroke-linecap:butt;stroke-linejoin:miter;stroke-miterlimit:4;stroke-dasharray:2, 2;stroke-dashoffset:0;stroke-opacity:1"
       d="M 270.762,405.23059 L 270.53,86.230595 M 200.762,85.230598 L 200.994,404.23059"
       id="path16427"
       sodipodi:nodetypes="cccc" />
    <path
       style="fill:none;fill-rule:evenodd;stroke:black;stroke-width:2;stroke-linecap:butt;stroke-linejoin:miter;stroke-miterlimit:4;stroke-dasharray:2, 2;stroke-dashoffset:0;stroke-opacity:1"
       d="M 550.762,405.23059 L 550.762,85.230598 M 460.762,85.230595 L 460.762,405.23059"
       id="path17314"
       sodipodi:nodetypes="cccc" />
    <g
       id="g2878">
      <path
         inkscape:tile-cy="85.008719"
         inkscape:tile-cx="400.22029"
         inkscape:tile-h="94.075864"
         inkscape:tile-w="664.93134"
         sodipodi:nodetypes="cccccc"
         id="path1872"
         d="M 50.762,205.23059 L 200.762,205.23059 C 247.50607,205.64425 225.25892,116.05792 270.762,115.23059 L 460.53,116.23059 C 502.72376,117.47158 504.84526,185.23059 550.762,185.23059 L 710.762,185.23059"
         style="fill:none;fill-rule:evenodd;stroke:black;stroke-width:2;stroke-linecap:butt;stroke-linejoin:miter;stroke-miterlimit:4;stroke-dasharray:none;stroke-opacity:1" />
      <path
         style="fill:none;fill-rule:evenodd;stroke:black;stroke-width:2;stroke-linecap:butt;stroke-linejoin:miter;stroke-miterlimit:4;stroke-dasharray:6, 2;stroke-dashoffset:0;stroke-opacity:1"
         d="M 51.762,274.22916 L 201.762,274.22916 C 248.50607,274.64282 226.25892,185.05649 271.762,184.22916 L 461.53,185.22916 C 503.72376,186.47015 505.84526,254.22916 551.762,254.22916 L 711.762,254.22916"
         id="use18225"
         sodipodi:nodetypes="cccccc" />
      <path
         style="fill:none;fill-rule:evenodd;stroke:black;stroke-width:2;stroke-linecap:butt;stroke-linejoin:miter;stroke-miterlimit:4;stroke-dasharray:none;stroke-opacity:1"
         d="M 51.762,344.22916 L 201.762,344.22916 C 248.50607,344.64282 226.25892,255.05649 271.762,254.22916 L 461.53,255.22916 C 503.72376,256.47015 505.84526,324.22916 551.762,324.22916 L 711.762,324.22916"
         id="use18227"
         sodipodi:nodetypes="cccccc" />
    </g>
    <path
       style="font-size:20px;font-style:italic"
       d="M 89.179966,60.367317 L 98.398716,60.367317 L 98.076451,62.027473 L 90.820591,62.027473 L 89.980748,66.34388 L 96.943638,66.34388 L 96.621372,68.004036 L 89.658482,68.004036 L 88.642857,73.287239 L 96.064732,73.287239 L 95.742466,74.947395 L 86.338169,74.947395 L 89.179966,60.367317 M 116.41629,68.345833 L 115.137,74.947395 L 113.34012,74.947395 L 114.59989,68.404426 C 114.65195,68.124485 114.69102,67.8836 114.71708,67.68177 C 114.7431,67.479955 114.75612,67.307429 114.75614,67.164192 C 114.75612,66.578263 114.59336,66.122534 114.26786,65.797005 C 113.94232,65.471493 113.48659,65.308733 112.90067,65.308723 C 112.02826,65.308733 111.25027,65.637509 110.56669,66.295051 C 109.88308,66.946101 109.44037,67.79571 109.23856,68.84388 L 108.03739,74.947395 L 106.24051,74.947395 L 107.51981,68.404426 C 107.57188,68.163548 107.61095,67.942194 107.637,67.740364 C 107.66303,67.532038 107.67605,67.346491 107.67606,67.183723 C 107.67605,66.591284 107.51329,66.1323 107.18778,65.80677 C 106.86225,65.474748 106.41303,65.308733 105.84012,65.308723 C 104.9547,65.308733 104.1702,65.637509 103.48661,66.295051 C 102.80301,66.946101 102.3603,67.79571 102.15848,68.84388 L 100.95731,74.947395 L 99.160435,74.947395 L 101.29911,64.009895 L 103.09598,64.009895 L 102.75419,65.709114 C 103.24246,65.071103 103.81212,64.586077 104.46317,64.254036 C 105.12071,63.915505 105.82384,63.746235 106.57254,63.746223 C 107.36681,63.746235 108.01785,63.954568 108.52567,64.371223 C 109.03998,64.7879 109.34923,65.367327 109.4534,66.109505 C 110.00027,65.341285 110.63178,64.755348 111.34794,64.351692 C 112.07058,63.948057 112.8323,63.746235 113.63309,63.746223 C 114.57057,63.746235 115.29323,64.016417 115.80106,64.55677 C 116.31536,65.097145 116.57253,65.862118 116.57254,66.851692 C 116.57253,67.066544 116.55951,67.304174 116.53348,67.564583 C 116.50742,67.818496 116.46836,68.078913 116.41629,68.345833 M 121.61161,59.752083 L 123.40848,59.752083 L 122.96903,62.027473 L 121.17215,62.027473 L 121.61161,59.752083 M 120.79129,64.009895 L 122.58817,64.009895 L 120.4495,74.947395 L 118.65262,74.947395 L 120.79129,64.009895 M 131.9534,64.009895 L 131.67997,65.40638 L 128.09598,65.40638 L 126.93387,71.34388 C 126.89481,71.565237 126.86551,71.750784 126.84598,71.90052 C 126.82645,72.050263 126.81668,72.16745 126.81669,72.252083 C 126.81668,72.668752 126.94038,72.971486 127.18778,73.160286 C 127.44168,73.34909 127.84533,73.44349 128.39872,73.443489 L 130.21512,73.443489 L 129.91239,74.947395 L 128.19364,74.947395 C 127.12593,74.947395 126.3284,74.739062 125.80106,74.322395 C 125.28023,73.90573 125.01981,73.27422 125.01981,72.427864 C 125.01981,72.278127 125.02957,72.115367 125.04911,71.939583 C 125.06864,71.757294 125.09793,71.558727 125.137,71.34388 L 126.29911,65.40638 L 124.77567,65.40638 L 125.05887,64.009895 L 126.55301,64.009895 L 127.15848,60.904426 L 128.95536,60.904426 L 128.35965,64.009895 L 131.9534,64.009895 M 139.80497,64.009895 L 139.53153,65.40638 L 135.94754,65.40638 L 134.78544,71.34388 C 134.74637,71.565237 134.71707,71.750784 134.69754,71.90052 C 134.67801,72.050263 134.66824,72.16745 134.66825,72.252083 C 134.66824,72.668752 134.79194,72.971486 135.03934,73.160286 C 135.29324,73.34909 135.69689,73.44349 136.25028,73.443489 L 138.06668,73.443489 L 137.76395,74.947395 L 136.0452,74.947395 C 134.97749,74.947395 134.17996,74.739062 133.65262,74.322395 C 133.13179,73.90573 132.87137,73.27422 132.87137,72.427864 C 132.87137,72.278127 132.88114,72.115367 132.90067,71.939583 C 132.9202,71.757294 132.9495,71.558727 132.98856,71.34388 L 134.15067,65.40638 L 132.62723,65.40638 L 132.91044,64.009895 L 134.40458,64.009895 L 135.01004,60.904426 L 136.80692,60.904426 L 136.21122,64.009895 L 139.80497,64.009895 M 148.81864,68.502083 C 148.83816,68.397923 148.85118,68.290501 148.8577,68.179817 C 148.87071,68.069147 148.87722,67.95847 148.87723,67.847786 C 148.87722,67.053523 148.64285,66.425268 148.17411,65.96302 C 147.71186,65.50079 147.08035,65.269671 146.27958,65.269661 C 145.38764,65.269671 144.59988,65.552873 143.91629,66.11927 C 143.2327,66.679174 142.71512,67.4767 142.36356,68.511848 L 148.81864,68.502083 M 150.38114,69.908333 L 142.02176,69.908333 C 141.9827,70.155733 141.95666,70.351046 141.94364,70.49427 C 141.93061,70.637504 141.9241,70.761201 141.92411,70.865364 C 141.9241,71.770315 142.2008,72.470184 142.75418,72.964973 C 143.31408,73.459767 144.10184,73.707162 145.11747,73.707161 C 145.89871,73.707162 146.63764,73.619272 147.33426,73.443489 C 148.03087,73.267709 148.67865,73.010548 149.27762,72.672005 L 148.93583,74.449348 C 148.29129,74.709765 147.62397,74.905078 146.93387,75.035286 C 146.25027,75.165494 145.55366,75.230598 144.84403,75.230598 C 143.3271,75.230598 142.15848,74.86927 141.33817,74.146614 C 140.52437,73.417449 140.11747,72.385549 140.11747,71.050911 C 140.11747,69.911593 140.31929,68.853651 140.72294,67.877083 C 141.13309,66.894018 141.73205,66.018368 142.51981,65.25013 C 143.02762,64.768369 143.62983,64.397276 144.32645,64.136848 C 145.02957,63.876443 145.77501,63.746235 146.56278,63.746223 C 147.79975,63.746235 148.78282,64.117328 149.512,64.859505 C 150.24766,65.601701 150.6155,66.597794 150.61551,67.847786 C 150.6155,68.147272 150.59597,68.469537 150.55692,68.814583 C 150.51785,69.15313 150.45925,69.517713 150.38114,69.908333 M 160.4202,65.670051 C 160.2379,65.572405 160.02957,65.497535 159.7952,65.445442 C 159.56082,65.393368 159.31017,65.367327 159.04325,65.367317 C 158.08621,65.367327 157.24962,65.73191 156.53348,66.461067 C 155.81733,67.183731 155.34207,68.153782 155.1077,69.371223 L 154.00418,74.947395 L 152.20731,74.947395 L 154.34598,64.009895 L 156.14286,64.009895 L 155.80106,65.709114 C 156.27632,65.077613 156.84272,64.592588 157.50028,64.254036 C 158.16433,63.915505 158.87071,63.746235 159.61942,63.746223 C 159.81472,63.746235 160.00678,63.759255 160.19559,63.785286 C 160.38438,63.804828 160.57319,63.840635 160.762,63.892708 L 160.4202,65.670051"
       id="flowRoot19123" />
    <path
       style="font-size:20px;font-style:italic"
       d="M 343.6038,60.367313 L 348.64286,60.367313 C 350.01004,60.367328 351.03217,60.621234 351.70926,61.129032 C 352.38634,61.636858 352.72488,62.401831 352.72489,63.423954 C 352.72488,64.361464 352.43191,65.17201 351.84598,65.855594 C 351.26655,66.532686 350.50483,66.942842 349.56083,67.086063 C 350.36811,67.268362 350.97358,67.616669 351.37723,68.130985 C 351.78087,68.645314 351.98269,69.332162 351.9827,70.191532 C 351.98269,71.656379 351.43907,72.815232 350.35184,73.668094 C 349.2711,74.520959 347.78999,74.947391 345.90848,74.947391 L 340.762,74.947391 L 343.6038,60.367313 M 344.08231,67.984501 L 343.04716,73.326297 L 346.22098,73.326297 C 347.41238,73.326299 348.33035,73.052862 348.97489,72.505985 C 349.61941,71.959113 349.94168,71.187629 349.94169,70.191532 C 349.94168,69.423308 349.72683,68.863413 349.29716,68.511844 C 348.87397,68.160289 348.19038,67.984508 347.24637,67.984501 L 344.08231,67.984501 M 345.24442,61.988407 L 344.38505,66.382938 L 347.3245,66.382938 C 348.37267,66.382947 349.18972,66.155082 349.77567,65.699344 C 350.36811,65.243625 350.66433,64.612115 350.66434,63.804813 C 350.66433,63.173314 350.46577,62.714331 350.06864,62.42786 C 349.6715,62.134904 349.03673,61.98842 348.16434,61.988407 L 345.24442,61.988407 M 364.67802,68.707157 L 363.45731,74.947391 L 361.66044,74.947391 L 361.99247,73.287235 C 361.46512,73.938278 360.8629,74.426558 360.18583,74.752079 C 359.51525,75.071089 358.76655,75.230594 357.93973,75.230594 C 357.00874,75.230594 356.24377,74.947391 355.64481,74.380985 C 355.05236,73.808069 354.75614,73.075648 354.75614,72.183719 C 354.75614,70.907682 355.26395,69.898568 356.27958,69.156376 C 357.30171,68.414195 358.70796,68.043101 360.49833,68.043094 L 362.99833,68.043094 L 363.09598,67.564579 C 363.109,67.512503 363.11876,67.457164 363.12528,67.398563 C 363.13178,67.333467 363.13504,67.23581 363.13505,67.105594 C 363.13504,66.526176 362.89741,66.076957 362.42216,65.757938 C 361.9534,65.432427 361.29259,65.269667 360.43973,65.269657 C 359.85379,65.269667 359.25158,65.344536 358.63309,65.494266 C 358.02111,65.644015 357.3896,65.868624 356.73856,66.168094 L 357.05106,64.507938 C 357.72814,64.254043 358.38895,64.065241 359.03348,63.941532 C 359.68452,63.811335 360.31277,63.746231 360.91825,63.746219 C 362.2073,63.746231 363.18712,64.026178 363.8577,64.586063 C 364.53478,65.145969 364.87332,65.95977 364.87333,67.027469 C 364.87332,67.242321 364.85704,67.496227 364.8245,67.789188 C 364.79194,68.075653 364.74311,68.381643 364.67802,68.707157 M 362.73466,69.449344 L 360.93778,69.449344 C 359.46642,69.44935 358.37593,69.647917 357.6663,70.045047 C 356.96317,70.435677 356.61161,71.0444 356.61161,71.871219 C 356.61161,72.444139 356.79064,72.893357 357.14872,73.218876 C 357.5133,73.544398 358.0146,73.707158 358.65262,73.707157 C 359.62918,73.707158 360.48204,73.358851 361.21122,72.662235 C 361.94038,71.959113 362.42215,71.021614 362.65653,69.849735 L 362.73466,69.449344 M 376.20145,64.332157 L 375.85966,66.031376 C 375.38439,65.770968 374.88308,65.575656 374.35575,65.445438 C 373.8284,65.315239 373.28478,65.250135 372.72489,65.250126 C 371.78087,65.250135 371.03543,65.412896 370.48856,65.738407 C 369.94819,66.057426 369.67801,66.493624 369.67802,67.047001 C 369.67801,67.691539 370.30952,68.18633 371.57255,68.531376 C 371.6702,68.557424 371.74181,68.576955 371.78739,68.589969 L 372.36356,68.765751 C 373.56147,69.097788 374.359,69.446095 374.75614,69.810672 C 375.15978,70.175261 375.3616,70.673307 375.36161,71.304813 C 375.3616,72.46367 374.89936,73.407679 373.97489,74.136844 C 373.05691,74.866011 371.85249,75.230594 370.36161,75.230594 C 369.78218,75.230594 369.17345,75.175256 368.53544,75.064579 C 367.89741,74.953902 367.19429,74.781376 366.42606,74.547001 L 366.77762,72.691532 C 367.43518,73.030075 368.08296,73.287237 368.72098,73.463016 C 369.359,73.638799 369.97098,73.726689 370.55692,73.726688 C 371.43582,73.726689 372.14871,73.537887 372.69559,73.160282 C 373.24897,72.78268 373.52566,72.304165 373.52567,71.724735 C 373.52566,71.099739 372.80301,70.595182 371.3577,70.211063 L 371.17216,70.162235 L 370.55692,70.005985 C 369.64546,69.765105 368.97814,69.44935 368.55497,69.058719 C 368.13179,68.66159 367.9202,68.157033 367.9202,67.545047 C 367.9202,66.379691 368.3564,65.455213 369.2288,64.77161 C 370.1077,64.088027 371.2991,63.746231 372.80302,63.746219 C 373.39546,63.746231 373.97163,63.795059 374.53153,63.892704 C 375.09793,63.990371 375.65457,64.136855 376.20145,64.332157 M 386.25028,68.502079 C 386.2698,68.397919 386.28282,68.290497 386.28934,68.179813 C 386.30235,68.069143 386.30886,67.958466 386.30887,67.847782 C 386.30886,67.053519 386.07449,66.425264 385.60575,65.963016 C 385.1435,65.500786 384.51199,65.269667 383.71122,65.269657 C 382.81928,65.269667 382.03153,65.552869 381.34794,66.119266 C 380.66434,66.67917 380.14676,67.476696 379.7952,68.511844 L 386.25028,68.502079 M 387.81278,69.908329 L 379.45341,69.908329 C 379.41434,70.155729 379.3883,70.351042 379.37528,70.494266 C 379.36226,70.6375 379.35575,70.761197 379.35575,70.86536 C 379.35575,71.770311 379.63244,72.47018 380.18583,72.964969 C 380.74572,73.459763 381.53348,73.707158 382.54911,73.707157 C 383.33035,73.707158 384.06928,73.619268 384.76591,73.443485 C 385.46251,73.267705 386.1103,73.010544 386.70926,72.672001 L 386.36747,74.449344 C 385.72293,74.709761 385.05561,74.905074 384.36552,75.035282 C 383.68191,75.16549 382.9853,75.230594 382.27567,75.230594 C 380.75874,75.230594 379.59012,74.869266 378.76981,74.14661 C 377.95601,73.417445 377.54911,72.385545 377.54911,71.050907 C 377.54911,69.911589 377.75093,68.853647 378.15458,67.877079 C 378.56473,66.894014 379.16369,66.018364 379.95145,65.250126 C 380.45926,64.768365 381.06147,64.397272 381.75809,64.136844 C 382.46121,63.876439 383.20665,63.746231 383.99442,63.746219 C 385.23139,63.746231 386.21446,64.117324 386.94364,64.859501 C 387.67931,65.601697 388.04714,66.59779 388.04716,67.847782 C 388.04714,68.147268 388.02761,68.469533 387.98856,68.814579 C 387.94949,69.153126 387.89089,69.517709 387.81278,69.908329"
       id="flowRoot19131" />
    <path
       d="M 603.81864,61.490364 L 603.41825,63.570442 C 602.79324,62.938944 602.12918,62.470194 601.42607,62.164192 C 600.72944,61.858216 599.97423,61.705221 599.16044,61.705208 C 598.04715,61.705221 597.06734,61.972148 596.22099,62.505989 C 595.38114,63.039855 594.65523,63.853656 594.04325,64.947395 C 593.65263,65.65053 593.35315,66.395971 593.14482,67.183723 C 592.94299,67.96498 592.84208,68.75274 592.84208,69.547005 C 592.84208,70.875134 593.18388,71.887502 593.86747,72.584114 C 594.55757,73.28073 595.55692,73.629037 596.86552,73.629036 C 597.77046,73.629037 598.6396,73.485808 599.47294,73.199348 C 600.30626,72.906382 601.11681,72.470184 601.90458,71.890755 L 601.4456,74.224739 C 600.67085,74.556771 599.88634,74.807421 599.09208,74.976692 C 598.30431,75.145963 597.5133,75.230598 596.71904,75.230598 C 594.85054,75.230598 593.38895,74.722786 592.33427,73.707161 C 591.28609,72.691538 590.762,71.278779 590.762,69.46888 C 590.762,68.310032 590.96057,67.17071 591.35771,66.050911 C 591.76135,64.931129 592.33752,63.908995 593.08622,62.984505 C 593.88049,62.001445 594.78544,61.275534 595.80107,60.80677 C 596.82319,60.338035 598.01134,60.10366 599.36552,60.103645 C 600.19884,60.10366 600.9866,60.220847 601.7288,60.455208 C 602.47749,60.683087 603.1741,61.028138 603.81864,61.490364 M 608.9456,75.230598 C 607.66304,75.230598 606.64742,74.836718 605.89872,74.048958 C 605.15653,73.254689 604.78544,72.17396 604.78544,70.80677 C 604.78544,70.012504 604.91239,69.205213 605.1663,68.384895 C 605.42672,67.55808 605.762,66.864721 606.17216,66.304817 C 606.81669,65.432431 607.53609,64.7879 608.33036,64.371223 C 609.12463,63.954568 610.02307,63.746235 611.02568,63.746223 C 612.26916,63.746235 613.27176,64.133604 614.03349,64.908333 C 614.80171,65.683082 615.18582,66.69545 615.18583,67.945442 C 615.18582,68.811334 615.05887,69.673963 614.80497,70.533333 C 614.55106,71.392711 614.21902,72.105601 613.80888,72.672005 C 613.17085,73.544402 612.4547,74.188932 611.66044,74.605598 C 610.86616,75.022265 609.96122,75.230598 608.9456,75.230598 M 606.65068,70.748176 C 606.65067,71.737763 606.85575,72.47995 607.26591,72.974739 C 607.68257,73.463022 608.31083,73.707162 609.15068,73.707161 C 610.3551,73.707162 611.35119,73.183074 612.13896,72.134895 C 612.93322,71.080212 613.33035,69.745578 613.33036,68.130989 C 613.33035,67.186986 613.11877,66.474096 612.6956,65.992317 C 612.27241,65.510556 611.65067,65.269671 610.83036,65.269661 C 610.15327,65.269671 609.55106,65.429176 609.02372,65.748176 C 608.49637,66.060685 608.02437,66.539201 607.60771,67.183723 C 607.30171,67.665501 607.06408,68.215631 606.89482,68.834114 C 606.73205,69.452609 606.65067,70.090629 606.65068,70.748176 M 619.75614,59.752083 L 621.55302,59.752083 L 618.59404,74.947395 L 616.79716,74.947395 L 619.75614,59.752083 M 625.30302,59.752083 L 627.09989,59.752083 L 624.14091,74.947395 L 622.34404,74.947395 L 625.30302,59.752083 M 636.80693,68.502083 C 636.82645,68.397923 636.83947,68.290501 636.84599,68.179817 C 636.859,68.069147 636.86551,67.95847 636.86552,67.847786 C 636.86551,67.053523 636.63113,66.425268 636.16239,65.96302 C 635.70015,65.50079 635.06864,65.269671 634.26786,65.269661 C 633.37593,65.269671 632.58817,65.552873 631.90458,66.11927 C 631.22098,66.679174 630.70341,67.4767 630.35185,68.511848 L 636.80693,68.502083 M 638.36943,69.908333 L 630.01005,69.908333 C 629.97099,70.155733 629.94494,70.351046 629.93193,70.49427 C 629.9189,70.637504 629.91239,70.761201 629.91239,70.865364 C 629.91239,71.770315 630.18908,72.470184 630.74247,72.964973 C 631.30236,73.459767 632.09012,73.707162 633.10575,73.707161 C 633.887,73.707162 634.62593,73.619272 635.32255,73.443489 C 636.01916,73.267709 636.66694,73.010548 637.26591,72.672005 L 636.92411,74.449348 C 636.27957,74.709765 635.61226,74.905078 634.92216,75.035286 C 634.23856,75.165494 633.54195,75.230598 632.83232,75.230598 C 631.31539,75.230598 630.14677,74.86927 629.32646,74.146614 C 628.51265,73.417449 628.10575,72.385549 628.10575,71.050911 C 628.10575,69.911593 628.30758,68.853651 628.71122,67.877083 C 629.12138,66.894018 629.72033,66.018368 630.5081,65.25013 C 631.01591,64.768369 631.61812,64.397276 632.31474,64.136848 C 633.01786,63.876443 633.7633,63.746235 634.55107,63.746223 C 635.78804,63.746235 636.77111,64.117328 637.50028,64.859505 C 638.23595,65.601701 638.60379,66.597794 638.6038,67.847786 C 638.60379,68.147272 638.58426,68.469537 638.54521,68.814583 C 638.50613,69.15313 638.44754,69.517713 638.36943,69.908333 M 650.21513,64.429817 L 649.8538,66.207161 C 649.4241,65.89467 648.96512,65.660295 648.47685,65.504036 C 647.99507,65.347795 647.49377,65.269671 646.97294,65.269661 C 646.40002,65.269671 645.85314,65.370582 645.33232,65.572395 C 644.81799,65.774227 644.38505,66.060685 644.03349,66.43177 C 643.47359,66.998184 643.04065,67.662246 642.73466,68.423958 C 642.42867,69.185682 642.27567,69.973442 642.27568,70.787239 C 642.27567,71.770315 642.51981,72.502736 643.0081,72.984505 C 643.50289,73.466277 644.25158,73.707162 645.25419,73.707161 C 645.74898,73.707162 646.27306,73.632292 646.82646,73.482551 C 647.38634,73.332814 647.96903,73.108204 648.5745,72.808723 L 648.23271,74.586067 C 647.71187,74.800911 647.17476,74.960416 646.62138,75.064583 C 646.0745,75.17526 645.51135,75.230598 644.93193,75.230598 C 643.4801,75.230598 642.36356,74.86927 641.58232,74.146614 C 640.80106,73.417449 640.41044,72.379038 640.41044,71.03138 C 640.41044,69.898572 640.61226,68.856907 641.01591,67.90638 C 641.42606,66.949356 642.03153,66.089982 642.83232,65.328255 C 643.37919,64.807431 644.02046,64.413552 644.75614,64.146614 C 645.49182,63.879698 646.29585,63.746235 647.16825,63.746223 C 647.67606,63.746235 648.18061,63.804828 648.68193,63.922005 C 649.18322,64.032693 649.69429,64.201963 650.21513,64.429817 M 658.92607,64.009895 L 658.65263,65.40638 L 655.06864,65.40638 L 653.90654,71.34388 C 653.86747,71.565237 653.83817,71.750784 653.81864,71.90052 C 653.79911,72.050263 653.78934,72.16745 653.78935,72.252083 C 653.78934,72.668752 653.91304,72.971486 654.16044,73.160286 C 654.41434,73.34909 654.81799,73.44349 655.37138,73.443489 L 657.18778,73.443489 L 656.88505,74.947395 L 655.1663,74.947395 C 654.09859,74.947395 653.30106,74.739062 652.77372,74.322395 C 652.25289,73.90573 651.99247,73.27422 651.99247,72.427864 C 651.99247,72.278127 652.00224,72.115367 652.02177,71.939583 C 652.0413,71.757294 652.0706,71.558727 652.10966,71.34388 L 653.27177,65.40638 L 651.74833,65.40638 L 652.03154,64.009895 L 653.52568,64.009895 L 654.13114,60.904426 L 655.92802,60.904426 L 655.33232,64.009895 L 658.92607,64.009895 M 663.39872,75.230598 C 662.11617,75.230598 661.10054,74.836718 660.35185,74.048958 C 659.60966,73.254689 659.23857,72.17396 659.23857,70.80677 C 659.23857,70.012504 659.36552,69.205213 659.61943,68.384895 C 659.87984,67.55808 660.21513,66.864721 660.62528,66.304817 C 661.26981,65.432431 661.98921,64.7879 662.78349,64.371223 C 663.57775,63.954568 664.47619,63.746235 665.4788,63.746223 C 666.72228,63.746235 667.72488,64.133604 668.48661,64.908333 C 669.25483,65.683082 669.63895,66.69545 669.63896,67.945442 C 669.63895,68.811334 669.51199,69.673963 669.2581,70.533333 C 669.00418,71.392711 668.67215,72.105601 668.262,72.672005 C 667.62397,73.544402 666.90783,74.188932 666.11357,74.605598 C 665.31929,75.022265 664.41434,75.230598 663.39872,75.230598 M 661.1038,70.748176 C 661.1038,71.737763 661.30888,72.47995 661.71904,72.974739 C 662.1357,73.463022 662.76395,73.707162 663.6038,73.707161 C 664.80822,73.707162 665.80431,73.183074 666.59208,72.134895 C 667.38634,71.080212 667.78348,69.745578 667.78349,68.130989 C 667.78348,67.186986 667.57189,66.474096 667.14872,65.992317 C 666.72554,65.510556 666.10379,65.269671 665.28349,65.269661 C 664.6064,65.269671 664.00419,65.429176 663.47685,65.748176 C 662.9495,66.060685 662.47749,66.539201 662.06083,67.183723 C 661.75484,67.665501 661.51721,68.215631 661.34794,68.834114 C 661.18518,69.452609 661.1038,70.090629 661.1038,70.748176 M 679.46318,65.670051 C 679.28088,65.572405 679.07254,65.497535 678.83818,65.445442 C 678.60379,65.393368 678.35314,65.367327 678.08622,65.367317 C 677.12918,65.367327 676.2926,65.73191 675.57646,66.461067 C 674.86031,67.183731 674.38505,68.153782 674.15068,69.371223 L 673.04716,74.947395 L 671.25028,74.947395 L 673.38896,64.009895 L 675.18583,64.009895 L 674.84404,65.709114 C 675.31929,65.077613 675.8857,64.592588 676.54325,64.254036 C 677.20731,63.915505 677.91369,63.746235 678.66239,63.746223 C 678.8577,63.746235 679.04976,63.759255 679.23857,63.785286 C 679.42736,63.804828 679.61616,63.840635 679.80497,63.892708 L 679.46318,65.670051"
       id="flowRoot19147" />
    <path
       style="font-size:16px;font-style:italic;font-variant:normal;font-weight:bold;font-stretch:normal;text-align:start;line-height:125%;writing-mode:lr-tb;text-anchor:start;font-family:Nimbus Roman No9 L"
       d="M 29.808,109.23862 L 29.408,109.15862 C 28.848001,110.07062 28.511999,110.47062 27.888,110.90262 C 26.992001,111.52662 25.903999,111.83062 24.528,111.83062 C 23.840001,111.83062 23.552,111.67062 23.552,111.28662 C 23.552,111.17462 23.6,110.99862 23.68,110.67862 C 23.712,110.59862 23.744,110.50262 23.76,110.37462 L 23.792,110.27862 L 24.688,106.93462 C 26.511998,106.96662 26.992,107.27062 26.992,108.37462 C 26.992,108.59862 26.976,108.77462 26.928,109.07862 L 27.376,109.15862 L 28.56,104.79062 L 28.112,104.72662 C 27.360001,106.23062 26.943998,106.43862 24.832,106.42262 L 25.808,102.85462 C 25.968,102.29462 26.160001,102.15062 26.816,102.15062 C 27.983999,102.15062 28.848,102.39062 29.28,102.82262 C 29.648,103.20662 29.76,103.60662 29.76,104.59862 L 30.192,104.67862 L 30.88,101.63862 L 22.24,101.63862 L 22.24,102.03862 C 22.464,102.07062 22.656,102.10262 22.736,102.11862 C 23.232,102.18262 23.408,102.31062 23.408,102.64662 C 23.408,102.88662 23.344,103.25462 23.248,103.60662 L 21.28,110.79062 C 21.024,111.63862 20.831999,111.81462 20,111.94262 L 20,112.34262 L 28.864,112.34262 L 29.808,109.23862"
       id="flowRoot19155" />
    <text
       xml:space="preserve"
       style="font-size:16px;font-style:italic;font-variant:normal;font-weight:bold;font-stretch:normal;text-align:start;line-height:125%;writing-mode:lr-tb;text-anchor:start;fill:black;fill-opacity:1;stroke:none;stroke-width:1px;stroke-linecap:butt;stroke-linejoin:miter;stroke-opacity:1;font-family:Nimbus Roman No9 L"
       x="711.22784"
       y="415.23059"
       id="text19163"
       sodipodi:linespacing="125%"><tspan
         sodipodi:role="line"
         id="tspan19165"
         x="711.22784"
         y="415.23059"
         style="font-size:16px;font-style:italic;font-variant:normal;font-weight:bold;font-stretch:normal;text-align:start;line-height:125%;writing-mode:lr-tb;text-anchor:start;font-family:Nimbus Roman No9 L">x</tspan></text>
    <path
       style="font-size:16px;font-style:italic;font-variant:normal;font-weight:bold;font-stretch:normal;text-align:start;line-height:125%;writing-mode:lr-tb;text-anchor:start;font-family:Nimbus Roman No9 L"
       d="M 729.65475,182.72636 L 729.25475,182.64636 C 728.69475,183.55836 728.35875,183.95836 727.73475,184.39036 C 726.83875,185.01436 725.75075,185.31836 724.37475,185.31836 C 723.68675,185.31836 723.39875,185.15836 723.39875,184.77436 C 723.39875,184.66236 723.44675,184.48636 723.52675,184.16636 C 723.55875,184.08636 723.59075,183.99036 723.60675,183.86236 L 723.63875,183.76636 L 724.53475,180.42236 C 726.35875,180.45436 726.83875,180.75836 726.83875,181.86236 C 726.83875,182.08636 726.82275,182.26236 726.77475,182.56636 L 727.22275,182.64636 L 728.40675,178.27836 L 727.95875,178.21436 C 727.20675,179.71836 726.79075,179.92636 724.67875,179.91036 L 725.65475,176.34236 C 725.81475,175.78236 726.00675,175.63836 726.66275,175.63836 C 727.83075,175.63836 728.69475,175.87836 729.12675,176.31036 C 729.49475,176.69436 729.60675,177.09436 729.60675,178.08636 L 730.03875,178.16636 L 730.72675,175.12636 L 722.08675,175.12636 L 722.08675,175.52636 C 722.31075,175.55836 722.50275,175.59036 722.58275,175.60636 C 723.07875,175.67036 723.25475,175.79836 723.25475,176.13436 C 723.25475,176.37436 723.19075,176.74236 723.09475,177.09436 L 721.12675,184.27836 C 720.87075,185.12636 720.67875,185.30236 719.84675,185.43036 L 719.84675,185.83036 L 728.71075,185.83036 L 729.65475,182.72636"
       id="flowRoot19167" />
    <path
       style="font-size:16px;font-style:italic;font-variant:normal;font-weight:bold;font-stretch:normal;text-align:start;line-height:125%;writing-mode:lr-tb;text-anchor:start;font-family:Nimbus Roman No9 L"
       d="M 729.46725,219.17181 L 729.06725,219.09181 C 728.50725,220.00381 728.17125,220.40381 727.54725,220.83581 C 726.65125,221.45981 725.56325,221.76381 724.18725,221.76381 C 723.49925,221.76381 723.21125,221.60381 723.21125,221.21981 C 723.21125,221.10781 723.25925,220.93181 723.33925,220.61181 C 723.37125,220.53181 723.40325,220.43581 723.41925,220.30781 L 723.45125,220.21181 L 724.34725,216.86781 C 726.17125,216.89981 726.65125,217.20381 726.65125,218.30781 C 726.65125,218.53181 726.63525,218.70781 726.58725,219.01181 L 727.03525,219.09181 L 728.21925,214.72381 L 727.77125,214.65981 C 727.01925,216.16381 726.60325,216.37181 724.49125,216.35581 L 725.46725,212.78781 C 725.62725,212.22781 725.81925,212.08381 726.47525,212.08381 C 727.64325,212.08381 728.50725,212.32381 728.93925,212.75581 C 729.30725,213.13981 729.41925,213.53981 729.41925,214.53181 L 729.85125,214.61181 L 730.53925,211.57181 L 721.89925,211.57181 L 721.89925,211.97181 C 722.12325,212.00381 722.31525,212.03581 722.39525,212.05181 C 722.89125,212.11581 723.06725,212.24381 723.06725,212.57981 C 723.06725,212.81981 723.00325,213.18781 722.90725,213.53981 L 720.93925,220.72381 C 720.68325,221.57181 720.49125,221.74781 719.65925,221.87581 L 719.65925,222.27581 L 728.52325,222.27581 L 729.46725,219.17181"
       id="flowRoot19175" />
    <path
       style="font-size:16px;font-style:italic;font-variant:normal;font-weight:bold;font-stretch:normal;text-align:start;line-height:125%;writing-mode:lr-tb;text-anchor:start;font-family:Nimbus Roman No9 L"
       d="M 729.46725,250.83587 L 729.06725,250.75587 C 728.50725,251.66787 728.17125,252.06787 727.54725,252.49987 C 726.65125,253.12387 725.56325,253.42787 724.18725,253.42787 C 723.49925,253.42787 723.21125,253.26787 723.21125,252.88387 C 723.21125,252.77187 723.25925,252.59587 723.33925,252.27587 C 723.37125,252.19587 723.40325,252.09987 723.41925,251.97187 L 723.45125,251.87587 L 724.34725,248.53187 C 726.17125,248.56387 726.65125,248.86787 726.65125,249.97187 C 726.65125,250.19587 726.63525,250.37187 726.58725,250.67587 L 727.03525,250.75587 L 728.21925,246.38787 L 727.77125,246.32387 C 727.01925,247.82787 726.60325,248.03587 724.49125,248.01987 L 725.46725,244.45187 C 725.62725,243.89187 725.81925,243.74787 726.47525,243.74787 C 727.64325,243.74787 728.50725,243.98787 728.93925,244.41987 C 729.30725,244.80387 729.41925,245.20387 729.41925,246.19587 L 729.85125,246.27587 L 730.53925,243.23587 L 721.89925,243.23587 L 721.89925,243.63587 C 722.12325,243.66787 722.31525,243.69987 722.39525,243.71587 C 722.89125,243.77987 723.06725,243.90787 723.06725,244.24387 C 723.06725,244.48387 723.00325,244.85187 722.90725,245.20387 L 720.93925,252.38787 C 720.68325,253.23587 720.49125,253.41187 719.65925,253.53987 L 719.65925,253.93987 L 728.52325,253.93987 L 729.46725,250.83587"
       id="flowRoot19183" />
    <path
       style="font-size:16px;font-style:italic;font-variant:normal;font-weight:bold;font-stretch:normal;text-align:start;line-height:125%;writing-mode:lr-tb;text-anchor:start;font-family:Nimbus Roman No9 L"
       d="M 729.46725,319.17176 L 729.06725,319.09176 C 728.50725,320.00376 728.17125,320.40376 727.54725,320.83576 C 726.65125,321.45976 725.56325,321.76376 724.18725,321.76376 C 723.49925,321.76376 723.21125,321.60376 723.21125,321.21976 C 723.21125,321.10776 723.25925,320.93176 723.33925,320.61176 C 723.37125,320.53176 723.40325,320.43576 723.41925,320.30776 L 723.45125,320.21176 L 724.34725,316.86776 C 726.17125,316.89976 726.65125,317.20376 726.65125,318.30776 C 726.65125,318.53176 726.63525,318.70776 726.58725,319.01176 L 727.03525,319.09176 L 728.21925,314.72376 L 727.77125,314.65976 C 727.01925,316.16376 726.60325,316.37176 724.49125,316.35576 L 725.46725,312.78776 C 725.62725,312.22776 725.81925,312.08376 726.47525,312.08376 C 727.64325,312.08376 728.50725,312.32376 728.93925,312.75576 C 729.30725,313.13976 729.41925,313.53976 729.41925,314.53176 L 729.85125,314.61176 L 730.53925,311.57176 L 721.89925,311.57176 L 721.89925,311.97176 C 722.12325,312.00376 722.31525,312.03576 722.39525,312.05176 C 722.89125,312.11576 723.06725,312.24376 723.06725,312.57976 C 723.06725,312.81976 723.00325,313.18776 722.90725,313.53976 L 720.93925,320.72376 C 720.68325,321.57176 720.49125,321.74776 719.65925,321.87576 L 719.65925,322.27576 L 728.52325,322.27576 L 729.46725,319.17176"
       id="flowRoot19191" />
    <path
       style="font-size:16px;font-style:italic;font-variant:normal;font-weight:bold;font-stretch:normal;text-align:start;line-height:125%;writing-mode:lr-tb;text-anchor:start;font-family:Nimbus Roman No9 L"
       d="M 736.01,228.04659 L 734.538,228.04659 L 734.826,226.91059 C 735.226,225.32659 735.722,224.52659 736.282,224.52659 C 736.442,224.52659 736.554,224.60659 736.554,224.73459 C 736.554,224.76659 736.538,224.81459 736.474,224.91059 C 736.346,225.10259 736.298,225.24659 736.298,225.40659 C 736.298,225.83859 736.65,226.19059 737.082,226.19059 C 737.562,226.19059 737.898,225.83859 737.898,225.34259 C 737.898,224.55859 737.274,224.06259 736.314,224.06259 C 735.482,224.06259 734.714,224.41459 734.138,225.03859 C 733.466,225.77459 733.162,226.43059 732.698,228.04659 L 731.53,228.04659 L 731.386,228.71859 L 732.554,228.71859 C 731.69,232.52659 731.242,234.52659 731.146,234.99059 C 730.65,237.35859 730.346,238.01459 729.706,238.01459 C 729.546,238.01459 729.418,237.93459 729.418,237.83859 C 729.418,237.80659 729.434,237.75859 729.482,237.69459 C 729.61,237.51859 729.674,237.32659 729.674,237.15059 C 729.674,236.76659 729.29,236.38259 728.89,236.38259 C 728.442,236.38259 728.058,236.78259 728.058,237.24659 C 728.058,238.01459 728.682,238.51059 729.642,238.51059 C 730.314,238.51059 730.906,238.28659 731.402,237.82259 C 732.042,237.24659 732.474,236.39859 733.002,234.75059 C 733.386,233.48659 733.562,232.76659 734.426,228.71859 L 735.866,228.71859 L 736.01,228.04659"
       id="text19199" />
    <path
       style="font-size:16px;font-style:italic;font-variant:normal;font-weight:bold;font-stretch:normal;text-align:start;line-height:125%;writing-mode:lr-tb;text-anchor:start;font-family:Nimbus Roman No9 L"
       d="M 731.018,328.71859 C 731.514,328.71859 731.658,328.76659 731.754,328.97459 C 732.026,329.48659 732.202,330.89459 732.202,332.60659 C 732.202,332.67059 732.202,332.92659 732.186,333.26259 L 732.122,335.43859 L 732.538,335.43859 C 734.57,333.50259 735.322,332.65459 736.202,331.37459 C 736.842,330.44659 737.178,329.58259 737.178,328.91059 C 737.178,328.35059 736.698,327.83859 736.202,327.83859 C 735.738,327.83859 735.306,328.28659 735.306,328.76659 C 735.306,329.03859 735.418,329.26259 735.69,329.58259 C 735.93,329.85459 736.01,330.01459 736.01,330.17459 C 736.01,330.73459 735.578,331.39059 733.994,333.18259 C 733.93,330.0466 733.834,329.11859 733.498,327.83859 C 732.714,328.03059 732.346,328.09459 731.018,328.28659 L 731.018,328.71859"
       id="text19203" />
    <path
       style="font-size:16px;font-style:italic;font-variant:normal;font-weight:bold;font-stretch:normal;text-align:start;line-height:125%;writing-mode:lr-tb;text-anchor:start;font-family:Nimbus Roman No9 L"
       d="M 734.218,262.97459 L 733.994,263.29459 C 733.578,263.91859 733.21,264.25459 732.97,264.25459 C 732.842,264.25459 732.73,264.14259 732.73,264.01459 C 732.73,263.91859 732.826,263.37459 732.874,263.18259 L 734.33,257.83859 C 733.466,258.03059 732.346,258.19059 731.098,258.28659 L 731.098,258.71859 C 731.786,258.71859 732.042,258.84659 732.042,259.18259 C 732.042,259.31059 731.994,259.55059 731.93,259.82259 L 731.002,263.26259 C 730.874,263.71059 730.794,264.15859 730.794,264.36659 C 730.794,264.95859 731.242,265.37459 731.898,265.37459 C 732.858,265.37459 733.45,264.87859 734.57,263.19859 L 734.218,262.97459 M 733.866,254.27059 C 733.306,254.27059 732.81,254.76659 732.81,255.32659 C 732.81,255.95059 733.274,256.43059 733.866,256.43059 C 734.474,256.43059 734.97,255.95059 734.97,255.35859 C 734.97,254.76659 734.458,254.27059 733.866,254.27059"
       id="text19207" />
    <path
       style="font-size:16px;font-style:italic;font-variant:normal;font-weight:bold;font-stretch:normal;text-align:start;line-height:125%;writing-mode:lr-tb;text-anchor:start;font-family:Nimbus Roman No9 L"
       d="M 738.28945,193.61131 C 737.52145,194.68331 737.02545,195.05131 736.33745,195.05131 C 735.64945,195.05131 735.16945,194.47531 735.16945,193.61131 C 735.16945,192.61931 735.58545,191.17931 736.16145,190.13931 C 736.57745,189.38731 737.05745,189.00331 737.53745,189.00331 C 737.72945,189.00331 737.88945,189.11531 737.88945,189.27531 C 737.88945,189.33931 737.85745,189.43531 737.76145,189.57931 C 737.61745,189.83531 737.55345,190.01131 737.55345,190.20331 C 737.55345,190.68331 737.95345,191.03531 738.48145,191.03531 C 739.05745,191.03531 739.47345,190.57131 739.47345,189.91531 C 739.47345,189.06731 738.73745,188.47531 737.68145,188.47531 C 735.42546,188.47531 733.12145,191.09931 733.12145,193.65931 C 733.12145,195.08331 734.12945,196.07531 735.56945,196.07531 C 736.27345,196.07531 736.96145,195.81931 737.50545,195.35531 C 737.92145,195.00331 738.17745,194.69931 738.73745,193.89931 L 738.28945,193.61131"
       id="text19211" />
    <path
       style="font-size:12.60753155px;font-weight:normal;text-align:center;text-anchor:middle"
       d="M 198.88007,416.02136 L 204.69136,416.02136 L 204.69136,416.96945 L 200.12359,416.96945 L 200.12359,419.4345 L 204.50052,419.4345 L 204.50052,420.38259 L 200.12359,420.38259 L 200.12359,423.39976 L 204.80217,423.39976 L 204.80217,424.34786 L 198.88007,424.34786 L 198.88007,416.02136 M 212.17708,419.30065 C 212.46025,418.83962 212.79884,418.49942 213.19283,418.28006 C 213.58681,418.06069 214.05055,417.95101 214.58408,417.951 C 215.30228,417.95101 215.85632,418.17967 216.24622,418.63698 C 216.63609,419.09058 216.83103,419.73752 216.83104,420.57779 L 216.83104,424.34786 L 215.69217,424.34786 L 215.69217,420.61124 C 215.69216,420.01265 215.57519,419.56835 215.34128,419.27833 C 215.10734,418.98834 214.75029,418.84334 214.27014,418.84333 C 213.68324,418.84334 213.2195,419.01995 212.87887,419.37314 C 212.53823,419.72636 212.36791,420.20785 212.36792,420.8176 L 212.36792,424.34786 L 211.22905,424.34786 L 211.22905,420.61124 C 211.22905,420.00894 211.11208,419.56463 210.87816,419.27833 C 210.64423,418.98834 210.28308,418.84334 209.7947,418.84333 C 209.21604,418.84334 208.75639,419.0218 208.41575,419.37872 C 208.07512,419.73194 207.9048,420.21157 207.9048,420.8176 L 207.9048,424.34786 L 206.76594,424.34786 L 206.76594,418.10159 L 207.9048,418.10159 L 207.9048,419.07199 C 208.16335,418.68904 208.47321,418.40647 208.83436,418.22428 C 209.19551,418.0421 209.62438,417.95101 210.12097,417.951 C 210.62166,417.95101 211.04642,418.06627 211.39527,418.29678 C 211.74821,418.52731 212.00882,418.86193 212.17708,419.30065 M 219.07183,418.10159 L 220.20453,418.10159 L 220.20453,424.34786 L 219.07183,424.34786 L 219.07183,418.10159 M 219.07183,415.67001 L 220.20453,415.67001 L 220.20453,416.96945 L 219.07183,416.96945 L 219.07183,415.67001 M 223.68885,416.32809 L 223.68885,418.10159 L 226.02198,418.10159 L 226.02198,418.8991 L 223.68885,418.8991 L 223.68885,422.28993 C 223.68885,422.7993 223.76477,423.12648 223.91662,423.27149 C 224.07257,423.41649 224.38653,423.48899 224.85849,423.48899 L 226.02198,423.48899 L 226.02198,424.34786 L 224.85849,424.34786 C 223.98434,424.34786 223.38104,424.20099 223.04862,423.90727 C 222.7162,423.60983 222.54998,423.07072 222.54999,422.28993 L 222.54999,418.8991 L 221.71892,418.8991 L 221.71892,418.10159 L 222.54999,418.10159 L 222.54999,416.32809 L 223.68885,416.32809 M 228.63829,416.32809 L 228.63829,418.10159 L 230.97142,418.10159 L 230.97142,418.8991 L 228.63829,418.8991 L 228.63829,422.28993 C 228.63829,422.7993 228.71421,423.12648 228.86606,423.27149 C 229.02201,423.41649 229.33597,423.48899 229.80794,423.48899 L 230.97142,423.48899 L 230.97142,424.34786 L 229.80794,424.34786 C 228.93377,424.34786 228.33049,424.20099 227.99806,423.90727 C 227.66563,423.60983 227.49942,423.07072 227.49942,422.28993 L 227.49942,418.8991 L 226.66837,418.8991 L 226.66837,418.10159 L 227.49942,418.10159 L 227.49942,416.32809 L 228.63829,416.32809 M 238.36481,420.96817 L 238.36481,421.47011 L 233.15681,421.47011 C 233.20606,422.17654 233.43999,422.71564 233.8586,423.08745 C 234.28131,423.45553 234.86818,423.63958 235.61922,423.63958 C 236.05425,423.63958 236.47491,423.59123 236.8812,423.49457 C 237.2916,423.3979 237.6979,423.2529 238.1001,423.05956 L 238.1001,424.02996 C 237.69379,424.18612 237.27724,424.30509 236.85042,424.38689 C 236.4236,424.46869 235.99063,424.50959 235.55151,424.50959 C 234.45163,424.50959 233.57952,424.21958 232.93519,423.63958 C 232.29497,423.05956 231.97486,422.27506 231.97486,421.28607 C 231.97486,420.26361 232.27855,419.45309 232.88595,418.85448 C 233.49745,418.25218 234.3203,417.95101 235.35452,417.951 C 236.28201,417.95101 237.01458,418.22243 237.55221,418.76525 C 238.09393,419.30437 238.3648,420.03868 238.36481,420.96817 M 237.23209,420.66702 C 237.22389,420.1056 237.04946,419.65758 236.70884,419.32296 C 236.3723,418.98834 235.92497,418.82103 235.36682,418.82103 C 234.7348,418.82103 234.22796,418.98276 233.84629,419.30622 C 233.46871,419.6297 233.2512,420.08515 233.19374,420.6726 L 237.23209,420.66702 M 244.19456,419.06084 C 244.06733,418.99391 243.9278,418.94558 243.77595,418.91583 C 243.6282,418.88237 243.46404,418.86565 243.28347,418.86564 C 242.64324,418.86565 242.15076,419.05526 241.80602,419.4345 C 241.46539,419.81002 241.29507,420.35099 241.29507,421.0574 L 241.29507,424.34786 L 240.15621,424.34786 L 240.15621,418.10159 L 241.29507,418.10159 L 241.29507,419.07199 C 241.5331,418.69276 241.84295,418.41204 242.22464,418.22986 C 242.60631,418.04397 243.07006,417.95101 243.6159,417.951 C 243.69387,417.95101 243.78005,417.95659 243.87445,417.96774 C 243.96884,417.97518 244.07349,417.98819 244.18841,418.00678 L 244.19456,419.06084 M 243.98526,420.76183 L 247.30335,420.76183 L 247.30335,421.67646 L 243.98526,421.67646 L 243.98526,420.76183 M 254.06267,421.2303 C 254.06266,420.47554 253.89029,419.88438 253.54556,419.4568 C 253.20492,419.02551 252.73501,418.80987 252.13583,418.80987 C 251.53665,418.80987 251.06468,419.02551 250.71995,419.4568 C 250.37931,419.88438 250.209,420.47554 250.209,421.2303 C 250.209,421.98506 250.37931,422.57808 250.71995,423.00937 C 251.06468,423.43694 251.53665,423.65072 252.13583,423.65072 C 252.73501,423.65072 253.20492,423.43694 253.54556,423.00937 C 253.89029,422.57808 254.06266,421.98506 254.06267,421.2303 M 250.209,419.04968 C 250.44703,418.67788 250.74662,418.40275 251.10778,418.22428 C 251.47303,418.0421 251.90805,417.95101 252.41285,417.951 C 253.25006,417.95101 253.92928,418.25218 254.4505,418.85448 C 254.9758,419.45681 255.23846,420.24875 255.23847,421.2303 C 255.23846,422.21186 254.9758,423.00379 254.4505,423.60611 C 253.92928,424.20843 253.25006,424.50959 252.41285,424.50959 C 251.90805,424.50959 251.47303,424.42036 251.10778,424.24189 C 250.74662,424.05971 250.44703,423.78272 250.209,423.41091 L 250.209,424.34786 L 249.07013,424.34786 L 249.07013,415.67001 L 250.209,415.67001 L 250.209,419.04968 M 260.24947,421.20799 C 259.33427,421.20799 258.70021,421.3028 258.34726,421.49242 C 257.99431,421.68204 257.81784,422.0055 257.81784,422.46282 C 257.81784,422.82718 257.94916,423.11719 258.21182,423.33284 C 258.47859,423.54477 258.83974,423.65072 259.29528,423.65072 C 259.9232,423.65072 260.42594,423.44996 260.80351,423.04841 C 261.18518,422.64314 261.37602,422.10589 261.37602,421.43664 L 261.37602,421.20799 L 260.24947,421.20799 M 262.50873,420.78414 L 262.50873,424.34786 L 261.37602,424.34786 L 261.37602,423.39976 C 261.11746,423.779 260.79529,424.05971 260.40953,424.24189 C 260.02375,424.42036 259.55178,424.50959 258.99365,424.50959 C 258.28775,424.50959 257.7255,424.33112 257.30689,423.97419 C 256.89238,423.61354 256.68513,423.13206 256.68513,422.52974 C 256.68513,421.82704 256.94368,421.29722 257.46079,420.94029 C 257.982,420.58336 258.75765,420.4049 259.78776,420.4049 L 261.37602,420.4049 L 261.37602,420.30451 C 261.37602,419.83233 261.20365,419.46796 260.85892,419.21141 C 260.51828,418.95116 260.03811,418.82103 259.4184,418.82103 C 259.02442,418.82103 258.6407,418.86378 258.26723,418.94929 C 257.89376,419.03481 257.53466,419.16309 257.18993,419.33411 L 257.18993,418.38601 C 257.60443,418.24102 258.00662,418.1332 258.39651,418.06255 C 258.78639,417.98819 259.166,417.95101 259.53537,417.951 C 260.53264,417.95101 261.27752,418.18525 261.77,418.65371 C 262.26249,419.12219 262.50872,419.83233 262.50873,420.78414 M 269.26804,418.28563 L 269.26804,419.25603 C 268.94793,419.10731 268.6155,418.99577 268.27077,418.92141 C 267.92602,418.84705 267.56898,418.80987 267.19962,418.80987 C 266.63736,418.80987 266.21465,418.88795 265.93148,419.0441 C 265.6524,419.20027 265.51287,419.4345 265.51287,419.74681 C 265.51287,419.98477 265.61341,420.17252 265.81451,420.31009 C 266.01561,420.44394 266.41985,420.57221 267.02725,420.69491 L 267.41508,420.77298 C 268.21946,420.92914 268.78992,421.15036 269.12646,421.43664 C 269.46708,421.71922 269.6374,422.11519 269.6374,422.62455 C 269.6374,423.20457 269.38295,423.66374 268.87406,424.00207 C 268.36926,424.34041 267.67363,424.50959 266.78716,424.50959 C 266.4178,424.50959 266.03202,424.47612 265.62983,424.4092 C 265.23174,424.34599 264.81108,424.24933 264.36785,424.11919 L 264.36785,423.05956 C 264.78646,423.25661 265.19891,423.40533 265.60521,423.50572 C 266.01151,423.60239 266.4137,423.65072 266.81179,423.65072 C 267.34531,423.65072 267.75572,423.56893 268.043,423.40533 C 268.33027,423.23803 268.47391,423.00379 268.47391,422.70263 C 268.47391,422.42378 268.36926,422.20999 268.15996,422.06127 C 267.95476,421.91255 267.50126,421.76941 266.79948,421.63184 L 266.40549,421.54819 C 265.7037,421.41434 265.19686,421.20985 264.88496,420.93472 C 264.57305,420.65586 264.41709,420.27477 264.41709,419.79143 C 264.41709,419.20398 264.64692,418.75038 265.10657,418.43063 C 265.56622,418.11089 266.21876,417.95101 267.06419,417.951 C 267.48279,417.95101 267.87678,417.9789 268.24615,418.03466 C 268.6155,418.09044 268.95613,418.17409 269.26804,418.28563 M 277.32012,420.96817 L 277.32012,421.47011 L 272.11212,421.47011 C 272.16138,422.17654 272.3953,422.71564 272.81391,423.08745 C 273.23662,423.45553 273.8235,423.63958 274.57453,423.63958 C 275.00956,423.63958 275.43022,423.59123 275.83653,423.49457 C 276.24691,423.3979 276.65321,423.2529 277.05541,423.05956 L 277.05541,424.02996 C 276.64911,424.18612 276.23255,424.30509 275.80574,424.38689 C 275.37892,424.46869 274.94594,424.50959 274.50682,424.50959 C 273.40694,424.50959 272.53484,424.21958 271.89051,423.63958 C 271.25028,423.05956 270.93017,422.27506 270.93017,421.28607 C 270.93017,420.26361 271.23387,419.45309 271.84126,418.85448 C 272.45276,418.25218 273.27561,417.95101 274.30983,417.951 C 275.23733,417.95101 275.96989,418.22243 276.50753,418.76525 C 277.04926,419.30437 277.32012,420.03868 277.32012,420.96817 M 276.18742,420.66702 C 276.1792,420.1056 276.00478,419.65758 275.66415,419.32296 C 275.32762,418.98834 274.88028,418.82103 274.32214,418.82103 C 273.69011,418.82103 273.18327,418.98276 272.8016,419.30622 C 272.42403,419.6297 272.20652,420.08515 272.14906,420.6726 L 276.18742,420.66702 M 192.04073,433.32686 L 192.04073,429.94719 L 193.17344,429.94719 L 193.17344,438.62504 L 192.04073,438.62504 L 192.04073,437.68809 C 191.8027,438.0599 191.50105,438.33689 191.13579,438.51907 C 190.77464,438.69754 190.33961,438.78677 189.83072,438.78677 C 188.9976,438.78677 188.31838,438.48561 187.79307,437.88329 C 187.27186,437.28097 187.01126,436.48904 187.01126,435.50748 C 187.01126,434.52593 187.27186,433.73399 187.79307,433.13166 C 188.31838,432.52936 188.9976,432.22819 189.83072,432.22818 C 190.33961,432.22819 190.77464,432.31928 191.13579,432.50146 C 191.50105,432.67993 191.8027,432.95506 192.04073,433.32686 M 188.1809,435.50748 C 188.1809,436.26224 188.35122,436.85526 188.69185,437.28655 C 189.03659,437.71412 189.50855,437.9279 190.10774,437.9279 C 190.70692,437.9279 191.17889,437.71412 191.52363,437.28655 C 191.86836,436.85526 192.04073,436.26224 192.04073,435.50748 C 192.04073,434.75272 191.86836,434.16156 191.52363,433.73398 C 191.17889,433.30269 190.70692,433.08705 190.10774,433.08705 C 189.50855,433.08705 189.03659,433.30269 188.69185,433.73398 C 188.35122,434.16156 188.1809,434.75272 188.1809,435.50748 M 201.40404,435.24535 L 201.40404,435.74729 L 196.19605,435.74729 C 196.24529,436.45372 196.47922,436.99282 196.89783,437.36463 C 197.32054,437.73271 197.90741,437.91676 198.65845,437.91676 C 199.09348,437.91676 199.51414,437.86841 199.92044,437.77175 C 200.33083,437.67508 200.73713,437.53008 201.13933,437.33674 L 201.13933,438.30714 C 200.73302,438.4633 200.31647,438.58227 199.88966,438.66407 C 199.46284,438.74587 199.02986,438.78677 198.59074,438.78677 C 197.49086,438.78677 196.61876,438.49676 195.97443,437.91676 C 195.3342,437.33674 195.01409,436.55224 195.01409,435.56325 C 195.01409,434.54079 195.31778,433.73027 195.92518,433.13166 C 196.53668,432.52936 197.35953,432.22819 198.39375,432.22818 C 199.32125,432.22819 200.05381,432.49961 200.59144,433.04243 C 201.13317,433.58155 201.40404,434.31586 201.40404,435.24535 M 200.27134,434.9442 C 200.26312,434.38278 200.0887,433.93476 199.74807,433.60014 C 199.41153,433.26552 198.9642,433.09821 198.40606,433.09821 C 197.77404,433.09821 197.26719,433.25994 196.88552,433.5834 C 196.50795,433.90688 196.29043,434.36233 196.23299,434.94978 L 200.27134,434.9442 M 204.3343,437.68809 L 204.3343,441.00085 L 203.19544,441.00085 L 203.19544,432.37877 L 204.3343,432.37877 L 204.3343,433.32686 C 204.57233,432.95506 204.87193,432.67993 205.23309,432.50146 C 205.59835,432.31928 206.03337,432.22819 206.53816,432.22818 C 207.37538,432.22819 208.05459,432.52936 208.57581,433.13166 C 209.10112,433.73399 209.36378,434.52593 209.36378,435.50748 C 209.36378,436.48904 209.10112,437.28097 208.57581,437.88329 C 208.05459,438.48561 207.37538,438.78677 206.53816,438.78677 C 206.03337,438.78677 205.59835,438.69754 205.23309,438.51907 C 204.87193,438.33689 204.57233,438.0599 204.3343,437.68809 M 208.18798,435.50748 C 208.18798,434.75272 208.01561,434.16156 207.67088,433.73398 C 207.33023,433.30269 206.86033,433.08705 206.26115,433.08705 C 205.66195,433.08705 205.18999,433.30269 204.84526,433.73398 C 204.50462,434.16156 204.3343,434.75272 204.3343,435.50748 C 204.3343,436.26224 204.50462,436.85526 204.84526,437.28655 C 205.18999,437.71412 205.66195,437.9279 206.26115,437.9279 C 206.86033,437.9279 207.33023,437.71412 207.67088,437.28655 C 208.01561,436.85526 208.18798,436.26224 208.18798,435.50748 M 211.24136,429.94719 L 212.37408,429.94719 L 212.37408,438.62504 L 211.24136,438.62504 L 211.24136,429.94719 M 220.63546,435.24535 L 220.63546,435.74729 L 215.42747,435.74729 C 215.47671,436.45372 215.71064,436.99282 216.12925,437.36463 C 216.55196,437.73271 217.13883,437.91676 217.88987,437.91676 C 218.3249,437.91676 218.74556,437.86841 219.15186,437.77175 C 219.56225,437.67508 219.96855,437.53008 220.37075,437.33674 L 220.37075,438.30714 C 219.96444,438.4633 219.54789,438.58227 219.12107,438.66407 C 218.69426,438.74587 218.26128,438.78677 217.82216,438.78677 C 216.72228,438.78677 215.85017,438.49676 215.20585,437.91676 C 214.56562,437.33674 214.24551,436.55224 214.24551,435.56325 C 214.24551,434.54079 214.5492,433.73027 215.1566,433.13166 C 215.7681,432.52936 216.59095,432.22819 217.62517,432.22818 C 218.55266,432.22819 219.28523,432.49961 219.82286,433.04243 C 220.36459,433.58155 220.63545,434.31586 220.63546,435.24535 M 219.50275,434.9442 C 219.49454,434.38278 219.32012,433.93476 218.97949,433.60014 C 218.64295,433.26552 218.19562,433.09821 217.63747,433.09821 C 217.00546,433.09821 216.49861,433.25994 216.11694,433.5834 C 215.73937,433.90688 215.52185,434.36233 215.46439,434.94978 L 219.50275,434.9442 M 223.59035,430.60527 L 223.59035,432.37877 L 225.92348,432.37877 L 225.92348,433.17628 L 223.59035,433.17628 L 223.59035,436.56711 C 223.59035,437.07648 223.66627,437.40366 223.81813,437.54867 C 223.97407,437.69367 224.28803,437.76617 224.75999,437.76617 L 225.92348,437.76617 L 225.92348,438.62504 L 224.75999,438.62504 C 223.88584,438.62504 223.28255,438.47817 222.95012,438.18445 C 222.6177,437.88701 222.45148,437.3479 222.45149,436.56711 L 222.45149,433.17628 L 221.62042,433.17628 L 221.62042,432.37877 L 222.45149,432.37877 L 222.45149,430.60527 L 223.59035,430.60527 M 227.4194,432.37877 L 228.55211,432.37877 L 228.55211,438.62504 L 227.4194,438.62504 L 227.4194,432.37877 M 227.4194,429.94719 L 228.55211,429.94719 L 228.55211,431.24663 L 227.4194,431.24663 L 227.4194,429.94719 M 233.58773,433.09821 C 232.98034,433.09821 232.50017,433.31385 232.14722,433.74513 C 231.79427,434.17272 231.6178,434.76016 231.6178,435.50748 C 231.6178,436.2548 231.79223,436.8441 232.14107,437.2754 C 232.49401,437.70297 232.97623,437.91676 233.58773,437.91676 C 234.19102,437.91676 234.66914,437.7011 235.02209,437.26982 C 235.37502,436.83852 235.5515,436.25108 235.55151,435.50748 C 235.5515,434.7676 235.37502,434.18201 235.02209,433.75071 C 234.66914,433.31572 234.19102,433.09821 233.58773,433.09821 M 233.58773,432.22818 C 234.57269,432.22819 235.3463,432.5182 235.90855,433.09821 C 236.4708,433.67822 236.75193,434.4813 236.75193,435.50748 C 236.75193,436.52994 236.4708,437.33303 235.90855,437.91676 C 235.3463,438.49676 234.57269,438.78677 233.58773,438.78677 C 232.59867,438.78677 231.82301,438.49676 231.26075,437.91676 C 230.70261,437.33303 230.42354,436.52994 230.42354,435.50748 C 230.42354,434.4813 230.70261,433.67822 231.26075,433.09821 C 231.82301,432.5182 232.59867,432.22819 233.58773,432.22818 M 244.35462,434.85497 L 244.35462,438.62504 L 243.22191,438.62504 L 243.22191,434.88842 C 243.2219,434.29727 243.09468,433.85482 242.84024,433.56109 C 242.58578,433.26738 242.20411,433.12052 241.69521,433.12051 C 241.08372,433.12052 240.60149,433.29713 240.24855,433.65032 C 239.8956,434.00354 239.71913,434.48503 239.71913,435.09478 L 239.71913,438.62504 L 238.58027,438.62504 L 238.58027,432.37877 L 239.71913,432.37877 L 239.71913,433.34917 C 239.98999,432.97365 240.30806,432.69294 240.67332,432.50704 C 241.04267,432.32115 241.46744,432.22819 241.94762,432.22818 C 242.73969,432.22819 243.33887,432.45127 243.74517,432.89743 C 244.15147,433.33988 244.35462,433.99239 244.35462,434.85497 M 254.63518,433.33802 C 254.50795,433.27109 254.36841,433.22276 254.21657,433.19301 C 254.06882,433.15955 253.90466,433.14283 253.72409,433.14282 C 253.08385,433.14283 252.59137,433.33244 252.24664,433.71168 C 251.906,434.0872 251.73569,434.62817 251.73569,435.33458 L 251.73569,438.62504 L 250.59683,438.62504 L 250.59683,432.37877 L 251.73569,432.37877 L 251.73569,433.34917 C 251.97372,432.96994 252.28357,432.68922 252.66525,432.50704 C 253.04692,432.32115 253.51067,432.22819 254.05651,432.22818 C 254.13448,432.22819 254.22066,432.23377 254.31506,432.24492 C 254.40945,432.25236 254.5141,432.26537 254.62902,432.28396 L 254.63518,433.33802 M 261.43759,435.24535 L 261.43759,435.74729 L 256.22959,435.74729 C 256.27883,436.45372 256.51277,436.99282 256.93137,437.36463 C 257.35409,437.73271 257.94096,437.91676 258.692,437.91676 C 259.12701,437.91676 259.54767,437.86841 259.95398,437.77175 C 260.36438,437.67508 260.77068,437.53008 261.17287,437.33674 L 261.17287,438.30714 C 260.76657,438.4633 260.35002,438.58227 259.9232,438.66407 C 259.49638,438.74587 259.06341,438.78677 258.62428,438.78677 C 257.5244,438.78677 256.6523,438.49676 256.00797,437.91676 C 255.36774,437.33674 255.04763,436.55224 255.04763,435.56325 C 255.04763,434.54079 255.35133,433.73027 255.95872,433.13166 C 256.57022,432.52936 257.39307,432.22819 258.42728,432.22818 C 259.35479,432.22819 260.08736,432.49961 260.62499,433.04243 C 261.16671,433.58155 261.43758,434.31586 261.43759,435.24535 M 260.30487,434.9442 C 260.29666,434.38278 260.12224,433.93476 259.78162,433.60014 C 259.44508,433.26552 258.99774,433.09821 258.4396,433.09821 C 257.80758,433.09821 257.30073,433.25994 256.91907,433.5834 C 256.54149,433.90688 256.32398,434.36233 256.26652,434.94978 L 260.30487,434.9442 M 267.80907,435.42939 C 267.80906,434.6858 267.63875,434.10951 267.29811,433.70052 C 266.96159,433.29155 266.48757,433.08705 265.87608,433.08705 C 265.26868,433.08705 264.79467,433.29155 264.45403,433.70052 C 264.11751,434.10951 263.94924,434.6858 263.94924,435.42939 C 263.94924,436.16929 264.11751,436.74372 264.45403,437.1527 C 264.79467,437.56168 265.26868,437.76617 265.87608,437.76617 C 266.48757,437.76617 266.96159,437.56168 267.29811,437.1527 C 267.63875,436.74372 267.80906,436.16929 267.80907,435.42939 M 268.94178,437.84982 C 268.94177,438.91318 268.68116,439.70326 268.15996,440.22006 C 267.63875,440.74058 266.84051,441.00085 265.76527,441.00085 C 265.36718,441.00085 264.99166,440.97296 264.63871,440.91719 C 264.28576,440.86514 263.94308,440.78334 263.61066,440.6718 L 263.61066,439.67351 C 263.94308,439.8371 264.2714,439.95794 264.59563,440.03602 C 264.91984,440.1141 265.25021,440.15313 265.58675,440.15313 C 266.32956,440.15313 266.88566,439.97653 267.25503,439.62332 C 267.62438,439.27383 267.80906,438.74401 267.80907,438.03387 L 267.80907,437.52636 C 267.57513,437.89445 267.27554,438.16958 266.91029,438.35176 C 266.54502,438.53394 266.10795,438.62504 265.59905,438.62504 C 264.75362,438.62504 264.07236,438.33317 263.55525,437.74944 C 263.03814,437.16571 262.77959,436.39237 262.77959,435.42939 C 262.77959,434.46272 263.03814,433.68751 263.55525,433.10378 C 264.07236,432.52006 264.75362,432.22819 265.59905,432.22818 C 266.10795,432.22819 266.54502,432.31928 266.91029,432.50146 C 267.27554,432.68365 267.57513,432.95879 267.80907,433.32686 L 267.80907,432.37877 L 268.94178,432.37877 L 268.94178,437.84982 M 271.27491,432.37877 L 272.40761,432.37877 L 272.40761,438.62504 L 271.27491,438.62504 L 271.27491,432.37877 M 271.27491,429.94719 L 272.40761,429.94719 L 272.40761,431.24663 L 271.27491,431.24663 L 271.27491,429.94719 M 277.44324,433.09821 C 276.83584,433.09821 276.35567,433.31385 276.00274,433.74513 C 275.64979,434.17272 275.47331,434.76016 275.47331,435.50748 C 275.47331,436.2548 275.64774,436.8441 275.99658,437.2754 C 276.34952,437.70297 276.83174,437.91676 277.44324,437.91676 C 278.04653,437.91676 278.52464,437.7011 278.8776,437.26982 C 279.23054,436.83852 279.40701,436.25108 279.40701,435.50748 C 279.40701,434.7676 279.23054,434.18201 278.8776,433.75071 C 278.52464,433.31572 278.04653,433.09821 277.44324,433.09821 M 277.44324,432.22818 C 278.42821,432.22819 279.20181,432.5182 279.76407,433.09821 C 280.32631,433.67822 280.60743,434.4813 280.60744,435.50748 C 280.60743,436.52994 280.32631,437.33303 279.76407,437.91676 C 279.20181,438.49676 278.42821,438.78677 277.44324,438.78677 C 276.45417,438.78677 275.67851,438.49676 275.11627,437.91676 C 274.55812,437.33303 274.27904,436.52994 274.27904,435.50748 C 274.27904,434.4813 274.55812,433.67822 275.11627,433.09821 C 275.67851,432.5182 276.45417,432.22819 277.44324,432.22818 M 288.21013,434.85497 L 288.21013,438.62504 L 287.07742,438.62504 L 287.07742,434.88842 C 287.07742,434.29727 286.9502,433.85482 286.69574,433.56109 C 286.44129,433.26738 286.05962,433.12052 285.55073,433.12051 C 284.93922,433.12052 284.457,433.29713 284.10407,433.65032 C 283.75112,434.00354 283.57464,434.48503 283.57464,435.09478 L 283.57464,438.62504 L 282.43578,438.62504 L 282.43578,432.37877 L 283.57464,432.37877 L 283.57464,433.34917 C 283.84551,432.97365 284.16356,432.69294 284.52882,432.50704 C 284.89818,432.32115 285.32295,432.22819 285.80312,432.22818 C 286.59519,432.22819 287.19438,432.45127 287.60068,432.89743 C 288.00697,433.33988 288.21012,433.99239 288.21013,434.85497"
       id="text19215" />
    <path
       style="font-size:12px;font-weight:normal;text-align:center;text-anchor:middle"
       d="M 463.24296,421.25426 L 463.24296,424.30489 L 465.23751,424.30489 C 465.90646,424.30489 466.40099,424.18034 466.72111,423.93123 C 467.04533,423.67841 467.20743,423.29359 467.20744,422.77679 C 467.20743,422.25627 467.04533,421.87332 466.72111,421.62792 C 466.40099,421.37882 465.90646,421.25427 465.23751,421.25426 L 463.24296,421.25426 M 463.24296,417.82996 L 463.24296,420.33962 L 465.08361,420.33962 C 465.69099,420.33963 466.14244,420.23739 466.43794,420.03289 C 466.73753,419.82468 466.88731,419.50865 466.88732,419.08479 C 466.88731,418.66467 466.73753,418.3505 466.43794,418.14228 C 466.14244,417.93408 465.69099,417.82997 465.08361,417.82996 L 463.24296,417.82996 M 461.99945,416.90418 L 465.17595,416.90418 C 466.12397,416.90419 466.85448,417.08266 467.36749,417.43958 C 467.88049,417.79652 468.13699,418.30402 468.13699,418.9621 C 468.13699,419.47148 468.00566,419.87674 467.74301,420.17789 C 467.48035,420.47906 467.09457,420.66682 466.58568,420.74117 C 467.19718,420.86015 467.67119,421.10926 468.00772,421.4885 C 468.34835,421.86402 468.51867,422.33435 468.51868,422.89948 C 468.51867,423.64309 468.23959,424.21752 467.68145,424.62278 C 467.12329,425.02805 466.32918,425.23068 465.29907,425.23068 L 461.99945,425.23068 L 461.99945,416.90418 M 473.72667,422.09082 C 472.81147,422.09082 472.17739,422.18563 471.82446,422.37525 C 471.47151,422.56487 471.29503,422.88833 471.29503,423.34565 C 471.29503,423.71001 471.42636,424.00002 471.68902,424.21566 C 471.95578,424.42759 472.31694,424.53356 472.77248,424.53355 C 473.4004,424.53356 473.90313,424.33278 474.28071,423.93123 C 474.66238,423.52597 474.85322,422.98872 474.85322,422.31947 L 474.85322,422.09082 L 473.72667,422.09082 M 475.98593,421.66696 L 475.98593,425.23068 L 474.85322,425.23068 L 474.85322,424.28258 C 474.59466,424.66182 474.27249,424.94253 473.88672,425.12472 C 473.50094,425.30318 473.02898,425.39241 472.47083,425.39241 C 471.76495,425.39241 471.20269,425.21395 470.78409,424.85702 C 470.36958,424.49637 470.16233,424.01488 470.16233,423.41257 C 470.16233,422.70986 470.42088,422.18005 470.93799,421.82312 C 471.45919,421.46619 472.23485,421.28772 473.26496,421.28772 L 474.85322,421.28772 L 474.85322,421.18734 C 474.85322,420.71515 474.68084,420.35079 474.33611,420.09424 C 473.99547,419.83398 473.51531,419.70385 472.8956,419.70385 C 472.50162,419.70385 472.11789,419.74661 471.74443,419.83212 C 471.37096,419.91764 471.01186,420.04591 470.66713,420.21694 L 470.66713,419.26884 C 471.08163,419.12385 471.48382,419.01603 471.8737,418.94537 C 472.26359,418.87102 472.6432,418.83384 473.01257,418.83383 C 474.00984,418.83384 474.75472,419.06807 475.2472,419.53653 C 475.73968,420.00501 475.98592,420.71515 475.98593,421.66696 M 482.74524,419.16846 L 482.74524,420.13886 C 482.42512,419.99014 482.0927,419.8786 481.74796,419.80423 C 481.40322,419.72987 481.04618,419.6927 480.67682,419.6927 C 480.11456,419.6927 479.69185,419.77077 479.40868,419.92693 C 479.1296,420.08309 478.99006,420.31732 478.99006,420.62963 C 478.99006,420.86759 479.09061,421.05535 479.29171,421.19291 C 479.49281,421.32677 479.89705,421.45503 480.50445,421.57773 L 480.89228,421.65581 C 481.69666,421.81196 482.26712,422.03318 482.60366,422.31947 C 482.94428,422.60204 483.1146,422.99802 483.1146,423.50738 C 483.1146,424.08739 482.86015,424.54657 482.35125,424.88491 C 481.84646,425.22324 481.15083,425.39241 480.26436,425.39241 C 479.895,425.39241 479.50922,425.35895 479.10703,425.29203 C 478.70894,425.22882 478.28828,425.13215 477.84505,425.00202 L 477.84505,423.94239 C 478.26366,424.13944 478.67611,424.28816 479.0824,424.38855 C 479.4887,424.48521 479.89089,424.53356 480.28899,424.53355 C 480.82251,424.53356 481.23291,424.45176 481.5202,424.28816 C 481.80747,424.12085 481.95111,423.88662 481.95111,423.58546 C 481.95111,423.3066 481.84646,423.09282 481.63715,422.9441 C 481.43196,422.79538 480.97846,422.65223 480.27667,422.51467 L 479.88269,422.43101 C 479.1809,422.29717 478.67406,422.09267 478.36216,421.81754 C 478.05025,421.53869 477.89429,421.15759 477.89429,420.67425 C 477.89429,420.0868 478.12412,419.63321 478.58377,419.31346 C 479.04342,418.99371 479.69596,418.83384 480.54139,418.83383 C 480.95999,418.83384 481.35398,418.86173 481.72335,418.91748 C 482.0927,418.97326 482.43333,419.05691 482.74524,419.16846 M 490.79733,421.851 L 490.79733,422.35294 L 485.58932,422.35294 C 485.63858,423.05936 485.8725,423.59847 486.29111,423.97027 C 486.71382,424.33836 487.3007,424.5224 488.05174,424.5224 C 488.48675,424.5224 488.90742,424.47407 489.31372,424.37739 C 489.72412,424.28073 490.13042,424.13573 490.53261,423.94239 L 490.53261,424.91279 C 490.12631,425.06895 489.70975,425.18792 489.28294,425.26972 C 488.85612,425.35151 488.42315,425.39241 487.98402,425.39241 C 486.88414,425.39241 486.01204,425.10241 485.36771,424.5224 C 484.72748,423.94239 484.40737,423.15788 484.40737,422.16889 C 484.40737,421.14644 484.71107,420.33591 485.31846,419.73731 C 485.92996,419.135 486.75281,418.83384 487.78703,418.83383 C 488.71453,418.83384 489.44709,419.10526 489.98473,419.64808 C 490.52645,420.18719 490.79732,420.92151 490.79733,421.851 M 489.66461,421.54984 C 489.6564,420.98843 489.48198,420.54041 489.14135,420.20578 C 488.80482,419.87116 488.35748,419.70385 487.79934,419.70385 C 487.16731,419.70385 486.66047,419.86558 486.2788,420.18905 C 485.90123,420.51252 485.68372,420.96797 485.62626,421.55542 L 489.66461,421.54984 M 492.05931,421.64465 L 495.3774,421.64465 L 495.3774,422.55929 L 492.05931,422.55929 L 492.05931,421.64465 M 502.14903,419.22422 L 502.14903,420.18347 C 501.82891,420.0236 501.50675,419.90463 501.18253,419.82654 C 500.86242,419.74475 500.5382,419.70385 500.20988,419.70385 C 499.47526,419.70385 498.9048,419.91578 498.4985,420.33962 C 498.0922,420.75977 497.88906,421.35093 497.88907,422.11313 C 497.88906,422.87532 498.0922,423.46834 498.4985,423.8922 C 498.9048,424.31233 499.47526,424.5224 500.20988,424.5224 C 500.5382,424.5224 500.86242,424.48336 501.18253,424.40528 C 501.50675,424.32348 501.82891,424.20265 502.14903,424.04277 L 502.14903,424.99086 C 501.83302,425.12472 501.5047,425.2251 501.16406,425.29203 C 500.82754,425.35895 500.46843,425.39241 500.08676,425.39241 C 499.04844,425.39241 498.22353,425.09683 497.61204,424.50567 C 497.00054,423.91451 496.6948,423.11699 496.6948,422.11313 C 496.6948,421.09439 497.0026,420.29316 497.61819,419.70942 C 498.23791,419.1257 499.08538,418.83384 500.16064,418.83383 C 500.50947,418.83384 500.8501,418.8673 501.18253,418.93422 C 501.51495,418.99743 501.83712,419.0941 502.14903,419.22422 M 506.80298,419.70385 C 506.19558,419.70385 505.71541,419.91949 505.36248,420.35078 C 505.00953,420.77836 504.83305,421.3658 504.83305,422.11313 C 504.83305,422.86044 505.00747,423.44975 505.35632,423.88104 C 505.70926,424.30861 506.19149,424.5224 506.80298,424.5224 C 507.40627,424.5224 507.88438,424.30675 508.23734,423.87546 C 508.59028,423.44418 508.76675,422.85673 508.76675,422.11313 C 508.76675,421.37324 508.59028,420.78765 508.23734,420.35636 C 507.88438,419.92136 507.40627,419.70385 506.80298,419.70385 M 506.80298,418.83383 C 507.78795,418.83384 508.56154,419.12385 509.12381,419.70385 C 509.68605,420.28387 509.96717,421.08695 509.96718,422.11313 C 509.96717,423.13558 509.68605,423.93867 509.12381,424.5224 C 508.56154,425.10241 507.78795,425.39241 506.80298,425.39241 C 505.81391,425.39241 505.03825,425.10241 504.47601,424.5224 C 503.91786,423.93867 503.63879,423.13558 503.63879,422.11313 C 503.63879,421.08695 503.91786,420.28387 504.47601,419.70385 C 505.03825,419.12385 505.81391,418.83384 506.80298,418.83383 M 511.83861,416.55283 L 512.97132,416.55283 L 512.97132,425.23068 L 511.83861,425.23068 L 511.83861,416.55283 M 515.33524,416.55283 L 516.46794,416.55283 L 516.46794,425.23068 L 515.33524,425.23068 L 515.33524,416.55283 M 524.72933,421.851 L 524.72933,422.35294 L 519.52133,422.35294 C 519.57058,423.05936 519.8045,423.59847 520.22312,423.97027 C 520.64583,424.33836 521.23271,424.5224 521.98374,424.5224 C 522.41876,424.5224 522.83942,424.47407 523.24573,424.37739 C 523.65613,424.28073 524.06242,424.13573 524.46462,423.94239 L 524.46462,424.91279 C 524.05832,425.06895 523.64175,425.18792 523.21495,425.26972 C 522.78812,425.35151 522.35516,425.39241 521.91602,425.39241 C 520.81614,425.39241 519.94405,425.10241 519.29972,424.5224 C 518.65949,423.94239 518.33937,423.15788 518.33937,422.16889 C 518.33937,421.14644 518.64308,420.33591 519.25047,419.73731 C 519.86196,419.135 520.68481,418.83384 521.71903,418.83383 C 522.64654,418.83384 523.3791,419.10526 523.91674,419.64808 C 524.45846,420.18719 524.72932,420.92151 524.72933,421.851 M 523.59662,421.54984 C 523.5884,420.98843 523.41399,420.54041 523.07335,420.20578 C 522.73683,419.87116 522.28949,419.70385 521.73135,419.70385 C 521.09932,419.70385 520.59247,419.86558 520.2108,420.18905 C 519.83324,420.51252 519.61573,420.96797 519.55827,421.55542 L 523.59662,421.54984 M 531.52558,419.22422 L 531.52558,420.18347 C 531.20546,420.0236 530.88329,419.90463 530.55908,419.82654 C 530.23896,419.74475 529.91475,419.70385 529.58643,419.70385 C 528.85181,419.70385 528.28135,419.91578 527.87506,420.33962 C 527.46875,420.75977 527.26561,421.35093 527.26561,422.11313 C 527.26561,422.87532 527.46875,423.46834 527.87506,423.8922 C 528.28135,424.31233 528.85181,424.5224 529.58643,424.5224 C 529.91475,424.5224 530.23896,424.48336 530.55908,424.40528 C 530.88329,424.32348 531.20546,424.20265 531.52558,424.04277 L 531.52558,424.99086 C 531.20956,425.12472 530.88124,425.2251 530.54062,425.29203 C 530.20408,425.35895 529.84498,425.39241 529.46331,425.39241 C 528.42499,425.39241 527.60008,425.09683 526.98859,424.50567 C 526.37709,423.91451 526.07134,423.11699 526.07134,422.11313 C 526.07134,421.09439 526.37914,420.29316 526.99474,419.70942 C 527.61445,419.1257 528.46193,418.83384 529.53719,418.83383 C 529.88602,418.83384 530.22665,418.8673 530.55908,418.93422 C 530.8915,418.99743 531.21366,419.0941 531.52558,419.22422 M 534.62821,417.21091 L 534.62821,418.98442 L 536.96134,418.98442 L 536.96134,419.78193 L 534.62821,419.78193 L 534.62821,423.17276 C 534.62821,423.68213 534.70413,424.00931 534.85599,424.15432 C 535.01193,424.29931 535.32589,424.37181 535.79786,424.37181 L 536.96134,424.37181 L 536.96134,425.23068 L 535.79786,425.23068 C 534.9237,425.23068 534.32041,425.08382 533.98798,424.7901 C 533.65556,424.49266 533.48934,423.95354 533.48935,423.17276 L 533.48935,419.78193 L 532.65829,419.78193 L 532.65829,418.98442 L 533.48935,418.98442 L 533.48935,417.21091 L 534.62821,417.21091 M 541.12897,419.70385 C 540.52157,419.70385 540.04141,419.91949 539.68847,420.35078 C 539.33552,420.77836 539.15905,421.3658 539.15905,422.11313 C 539.15905,422.86044 539.33346,423.44975 539.68231,423.88104 C 540.03525,424.30861 540.51748,424.5224 541.12897,424.5224 C 541.73226,424.5224 542.21038,424.30675 542.56332,423.87546 C 542.91627,423.44418 543.09275,422.85673 543.09275,422.11313 C 543.09275,421.37324 542.91627,420.78765 542.56332,420.35636 C 542.21038,419.92136 541.73226,419.70385 541.12897,419.70385 M 541.12897,418.83383 C 542.11394,418.83384 542.88754,419.12385 543.44979,419.70385 C 544.01203,420.28387 544.29316,421.08695 544.29317,422.11313 C 544.29316,423.13558 544.01203,423.93867 543.44979,424.5224 C 542.88754,425.10241 542.11394,425.39241 541.12897,425.39241 C 540.1399,425.39241 539.36425,425.10241 538.802,424.5224 C 538.24386,423.93867 537.96478,423.13558 537.96478,422.11313 C 537.96478,421.08695 538.24386,420.28387 538.802,419.70385 C 539.36425,419.12385 540.1399,418.83384 541.12897,418.83383 M 550.15986,419.94366 C 550.03263,419.87674 549.89309,419.82841 549.74126,419.79865 C 549.59351,419.7652 549.42935,419.74847 549.24877,419.74846 C 548.60854,419.74847 548.11606,419.93808 547.77133,420.31732 C 547.43068,420.69284 547.26038,421.23381 547.26038,421.94023 L 547.26038,425.23068 L 546.12151,425.23068 L 546.12151,418.98442 L 547.26038,418.98442 L 547.26038,419.95482 C 547.49841,419.57559 547.80826,419.29487 548.18993,419.11268 C 548.5716,418.92679 549.03536,418.83384 549.58119,418.83383 C 549.65917,418.83384 549.74535,418.83942 549.83975,418.85056 C 549.93414,418.85801 550.03878,418.87102 550.1537,418.88961 L 550.15986,419.94366 M 459.69093,434.20969 L 459.69093,430.83001 L 460.82365,430.83001 L 460.82365,439.50786 L 459.69093,439.50786 L 459.69093,438.57092 C 459.45289,438.94272 459.15125,439.21972 458.78599,439.4019 C 458.42484,439.58036 457.98982,439.66959 457.48091,439.66959 C 456.6478,439.66959 455.96859,439.36843 455.44327,438.76611 C 454.92207,438.1638 454.66146,437.37186 454.66146,436.39031 C 454.66146,435.40875 454.92207,434.61681 455.44327,434.01449 C 455.96859,433.41218 456.6478,433.11102 457.48091,433.11101 C 457.98982,433.11102 458.42484,433.20211 458.78599,433.38428 C 459.15125,433.56276 459.45289,433.83789 459.69093,434.20969 M 455.8311,436.39031 C 455.8311,437.14506 456.00142,437.73809 456.34206,438.16938 C 456.68679,438.59695 457.15875,438.81074 457.75794,438.81074 C 458.35712,438.81074 458.82908,438.59695 459.17382,438.16938 C 459.51856,437.73809 459.69092,437.14506 459.69093,436.39031 C 459.69092,435.63555 459.51856,435.04439 459.17382,434.61681 C 458.82908,434.18553 458.35712,433.96988 457.75794,433.96988 C 457.15875,433.96988 456.68679,434.18553 456.34206,434.61681 C 456.00142,435.04439 455.8311,435.63555 455.8311,436.39031 M 469.05424,436.12819 L 469.05424,436.63012 L 463.84625,436.63012 C 463.89549,437.33654 464.12943,437.87566 464.54804,438.24745 C 464.97075,438.61554 465.55762,438.79958 466.30866,438.79958 C 466.74368,438.79958 467.16434,438.75125 467.57064,438.65457 C 467.98104,438.55791 468.38734,438.41291 468.78954,438.21957 L 468.78954,439.18997 C 468.38323,439.34613 467.96668,439.46511 467.53986,439.5469 C 467.11304,439.62869 466.68007,439.66959 466.24095,439.66959 C 465.14106,439.66959 464.26896,439.37959 463.62463,438.79958 C 462.98441,438.21957 462.66429,437.43507 462.66429,436.44607 C 462.66429,435.42363 462.96799,434.6131 463.57539,434.01449 C 464.18688,433.41218 465.00974,433.11102 466.04395,433.11101 C 466.97145,433.11102 467.70402,433.38244 468.24165,433.92526 C 468.78337,434.46438 469.05423,435.19869 469.05424,436.12819 M 467.92154,435.82702 C 467.91333,435.26561 467.7389,434.81759 467.39828,434.48296 C 467.06174,434.14834 466.6144,433.98103 466.05626,433.98103 C 465.42424,433.98103 464.9174,434.14277 464.53572,434.46623 C 464.15815,434.7897 463.94064,435.24516 463.88319,435.8326 L 467.92154,435.82702 M 471.98451,438.57092 L 471.98451,441.88367 L 470.84565,441.88367 L 470.84565,433.2616 L 471.98451,433.2616 L 471.98451,434.20969 C 472.22254,433.83789 472.52214,433.56276 472.88329,433.38428 C 473.24855,433.20211 473.68357,433.11102 474.18837,433.11101 C 475.02558,433.11102 475.70479,433.41218 476.22601,434.01449 C 476.75132,434.61681 477.01398,435.40875 477.01398,436.39031 C 477.01398,437.37186 476.75132,438.1638 476.22601,438.76611 C 475.70479,439.36843 475.02558,439.66959 474.18837,439.66959 C 473.68357,439.66959 473.24855,439.58036 472.88329,439.4019 C 472.52214,439.21972 472.22254,438.94272 471.98451,438.57092 M 475.83818,436.39031 C 475.83818,435.63555 475.6658,435.04439 475.32107,434.61681 C 474.98044,434.18553 474.51053,433.96988 473.91135,433.96988 C 473.31216,433.96988 472.84019,434.18553 472.49546,434.61681 C 472.15483,435.04439 471.98451,435.63555 471.98451,436.39031 C 471.98451,437.14506 472.15483,437.73809 472.49546,438.16938 C 472.84019,438.59695 473.31216,438.81074 473.91135,438.81074 C 474.51053,438.81074 474.98044,438.59695 475.32107,438.16938 C 475.6658,437.73809 475.83818,437.14506 475.83818,436.39031 M 478.89157,430.83001 L 480.02428,430.83001 L 480.02428,439.50786 L 478.89157,439.50786 L 478.89157,430.83001 M 488.28566,436.12819 L 488.28566,436.63012 L 483.07767,436.63012 C 483.12691,437.33654 483.36085,437.87566 483.77946,438.24745 C 484.20217,438.61554 484.78904,438.79958 485.54008,438.79958 C 485.9751,438.79958 486.39576,438.75125 486.80206,438.65457 C 487.21246,438.55791 487.61876,438.41291 488.02096,438.21957 L 488.02096,439.18997 C 487.61465,439.34613 487.1981,439.46511 486.77128,439.5469 C 486.34446,439.62869 485.91149,439.66959 485.47237,439.66959 C 484.37248,439.66959 483.50038,439.37959 482.85605,438.79958 C 482.21583,438.21957 481.89571,437.43507 481.89571,436.44607 C 481.89571,435.42363 482.19941,434.6131 482.80681,434.01449 C 483.4183,433.41218 484.24116,433.11102 485.27537,433.11101 C 486.20287,433.11102 486.93544,433.38244 487.47307,433.92526 C 488.01479,434.46438 488.28565,435.19869 488.28566,436.12819 M 487.15296,435.82702 C 487.14474,435.26561 486.97032,434.81759 486.6297,434.48296 C 486.29316,434.14834 485.84582,433.98103 485.28768,433.98103 C 484.65566,433.98103 484.14882,434.14277 483.76714,434.46623 C 483.38957,434.7897 483.17206,435.24516 483.11461,435.8326 L 487.15296,435.82702 M 491.24056,431.4881 L 491.24056,433.2616 L 493.57368,433.2616 L 493.57368,434.05911 L 491.24056,434.05911 L 491.24056,437.44994 C 491.24056,437.95931 491.31647,438.2865 491.46833,438.4315 C 491.62428,438.57649 491.93824,438.649 492.4102,438.649 L 493.57368,438.649 L 493.57368,439.50786 L 492.4102,439.50786 C 491.53604,439.50786 490.93275,439.361 490.60033,439.06728 C 490.2679,438.76984 490.10168,438.23072 490.1017,437.44994 L 490.1017,434.05911 L 489.27063,434.05911 L 489.27063,433.2616 L 490.1017,433.2616 L 490.1017,431.4881 L 491.24056,431.4881 M 495.06961,433.2616 L 496.20231,433.2616 L 496.20231,439.50786 L 495.06961,439.50786 L 495.06961,433.2616 M 495.06961,430.83001 L 496.20231,430.83001 L 496.20231,432.12945 L 495.06961,432.12945 L 495.06961,430.83001 M 501.23794,433.98103 C 500.63054,433.98103 500.15037,434.19668 499.79744,434.62797 C 499.44449,435.05554 499.26801,435.64299 499.26801,436.39031 C 499.26801,437.13763 499.44243,437.72694 499.79128,438.15822 C 500.14422,438.58579 500.62643,438.79958 501.23794,438.79958 C 501.84122,438.79958 502.31934,438.58394 502.67229,438.15264 C 503.02524,437.72136 503.2017,437.13391 503.20171,436.39031 C 503.2017,435.65042 503.02524,435.06483 502.67229,434.63354 C 502.31934,434.19854 501.84122,433.98103 501.23794,433.98103 M 501.23794,433.11101 C 502.2229,433.11102 502.9965,433.40103 503.55876,433.98103 C 504.121,434.56105 504.40213,435.36414 504.40214,436.39031 C 504.40213,437.41276 504.121,438.21585 503.55876,438.79958 C 502.9965,439.37959 502.2229,439.66959 501.23794,439.66959 C 500.24887,439.66959 499.47321,439.37959 498.91097,438.79958 C 498.35281,438.21585 498.07375,437.41276 498.07375,436.39031 C 498.07375,435.36414 498.35281,434.56105 498.91097,433.98103 C 499.47321,433.40103 500.24887,433.11102 501.23794,433.11101 M 512.00483,435.73779 L 512.00483,439.50786 L 510.87212,439.50786 L 510.87212,435.77126 C 510.87212,435.1801 510.74489,434.73765 510.49045,434.44393 C 510.23599,434.15021 509.85432,434.00334 509.34543,434.00334 C 508.73392,434.00334 508.2517,434.17995 507.89876,434.53316 C 507.54581,434.88637 507.36933,435.36785 507.36934,435.9776 L 507.36934,439.50786 L 506.23047,439.50786 L 506.23047,433.2616 L 507.36934,433.2616 L 507.36934,434.232 C 507.64021,433.85648 507.95826,433.57577 508.32352,433.38986 C 508.69288,433.20397 509.11765,433.11102 509.59782,433.11101 C 510.38989,433.11102 510.98907,433.3341 511.39538,433.78026 C 511.80167,434.22271 512.00482,434.87522 512.00483,435.73779 M 522.28539,434.22084 C 522.15816,434.15392 522.01863,434.10559 521.86678,434.07584 C 521.71903,434.04239 521.55487,434.02565 521.3743,434.02564 C 520.73407,434.02565 520.24159,434.21527 519.89685,434.5945 C 519.55622,434.97003 519.3859,435.51099 519.3859,436.21742 L 519.3859,439.50786 L 518.24704,439.50786 L 518.24704,433.2616 L 519.3859,433.2616 L 519.3859,434.232 C 519.62393,433.85277 519.93378,433.57206 520.31547,433.38986 C 520.69713,433.20397 521.16089,433.11102 521.70672,433.11101 C 521.7847,433.11102 521.87088,433.1166 521.96528,433.12774 C 522.05967,433.13519 522.16432,433.1482 522.27924,433.16679 L 522.28539,434.22084 M 529.08779,436.12819 L 529.08779,436.63012 L 523.8798,436.63012 C 523.92904,437.33654 524.16297,437.87566 524.58158,438.24745 C 525.00429,438.61554 525.59116,438.79958 526.3422,438.79958 C 526.77723,438.79958 527.19789,438.75125 527.60419,438.65457 C 528.01458,438.55791 528.42088,438.41291 528.82308,438.21957 L 528.82308,439.18997 C 528.41677,439.34613 528.00022,439.46511 527.57341,439.5469 C 527.14659,439.62869 526.71361,439.66959 526.27449,439.66959 C 525.17461,439.66959 524.30251,439.37959 523.65818,438.79958 C 523.01795,438.21957 522.69784,437.43507 522.69784,436.44607 C 522.69784,435.42363 523.00153,434.6131 523.60893,434.01449 C 524.22043,433.41218 525.04328,433.11102 526.0775,433.11101 C 527.005,433.11102 527.73756,433.38244 528.27519,433.92526 C 528.81692,434.46438 529.08779,435.19869 529.08779,436.12819 M 527.95509,435.82702 C 527.94687,435.26561 527.77245,434.81759 527.43182,434.48296 C 527.09528,434.14834 526.64795,433.98103 526.08981,433.98103 C 525.45779,433.98103 524.95094,434.14277 524.56927,434.46623 C 524.1917,434.7897 523.97418,435.24516 523.91674,435.8326 L 527.95509,435.82702 M 535.45928,436.31223 C 535.45928,435.56863 535.28896,434.99233 534.94833,434.58335 C 534.6118,434.17437 534.13779,433.96988 533.52629,433.96988 C 532.91889,433.96988 532.44488,434.17437 532.10425,434.58335 C 531.76772,434.99233 531.59945,435.56863 531.59945,436.31223 C 531.59945,437.05211 531.76772,437.62655 532.10425,438.03552 C 532.44488,438.44451 532.91889,438.649 533.52629,438.649 C 534.13779,438.649 534.6118,438.44451 534.94833,438.03552 C 535.28896,437.62655 535.45928,437.05211 535.45928,436.31223 M 536.59199,438.73266 C 536.59198,439.796 536.33138,440.58608 535.81018,441.10289 C 535.28896,441.62341 534.49073,441.88367 533.41548,441.88367 C 533.01739,441.88367 532.64188,441.85578 532.28893,441.80002 C 531.93598,441.74796 531.5933,441.66617 531.26088,441.55463 L 531.26088,440.55634 C 531.5933,440.71994 531.92162,440.84077 532.24584,440.91885 C 532.57005,440.99692 532.90042,441.03597 533.23696,441.03597 C 533.97979,441.03597 534.53587,440.85936 534.90524,440.50615 C 535.2746,440.15665 535.45928,439.62684 535.45928,438.9167 L 535.45928,438.40918 C 535.22535,438.77727 534.92576,439.0524 534.5605,439.23459 C 534.19524,439.41677 533.75817,439.50786 533.24927,439.50786 C 532.40385,439.50786 531.72258,439.216 531.20547,438.63227 C 530.68837,438.04854 530.42981,437.2752 530.42981,436.31223 C 530.42981,435.34555 530.68837,434.57034 531.20547,433.98661 C 531.72258,433.40288 532.40385,433.11102 533.24927,433.11101 C 533.75817,433.11102 534.19524,433.20211 534.5605,433.38428 C 534.92576,433.56648 535.22535,433.84161 535.45928,434.20969 L 535.45928,433.2616 L 536.59199,433.2616 L 536.59199,438.73266 M 538.92512,433.2616 L 540.05784,433.2616 L 540.05784,439.50786 L 538.92512,439.50786 L 538.92512,433.2616 M 538.92512,430.83001 L 540.05784,430.83001 L 540.05784,432.12945 L 538.92512,432.12945 L 538.92512,430.83001 M 545.09346,433.98103 C 544.48607,433.98103 544.0059,434.19668 543.65295,434.62797 C 543.3,435.05554 543.12353,435.64299 543.12353,436.39031 C 543.12353,437.13763 543.29795,437.72694 543.64679,438.15822 C 543.99974,438.58579 544.48196,438.79958 545.09346,438.79958 C 545.69675,438.79958 546.17487,438.58394 546.52782,438.15264 C 546.88075,437.72136 547.05723,437.13391 547.05724,436.39031 C 547.05723,435.65042 546.88075,435.06483 546.52782,434.63354 C 546.17487,434.19854 545.69675,433.98103 545.09346,433.98103 M 545.09346,433.11101 C 546.07842,433.11102 546.85203,433.40103 547.41428,433.98103 C 547.97653,434.56105 548.25765,435.36414 548.25765,436.39031 C 548.25765,437.41276 547.97653,438.21585 547.41428,438.79958 C 546.85203,439.37959 546.07842,439.66959 545.09346,439.66959 C 544.10439,439.66959 543.32873,439.37959 542.76648,438.79958 C 542.20834,438.21585 541.92926,437.41276 541.92927,436.39031 C 541.92926,435.36414 542.20834,434.56105 542.76648,433.98103 C 543.32873,433.40103 544.10439,433.11102 545.09346,433.11101 M 555.86034,435.73779 L 555.86034,439.50786 L 554.72764,439.50786 L 554.72764,435.77126 C 554.72763,435.1801 554.60041,434.73765 554.34597,434.44393 C 554.09151,434.15021 553.70983,434.00334 553.20094,434.00334 C 552.58945,434.00334 552.10722,434.17995 551.75428,434.53316 C 551.40133,434.88637 551.22486,435.36785 551.22486,435.9776 L 551.22486,439.50786 L 550.086,439.50786 L 550.086,433.2616 L 551.22486,433.2616 L 551.22486,434.232 C 551.49572,433.85648 551.81379,433.57577 552.17904,433.38986 C 552.5484,433.20397 552.97317,433.11102 553.45335,433.11101 C 554.24541,433.11102 554.8446,433.3341 555.2509,433.78026 C 555.65719,434.22271 555.86034,434.87522 555.86034,435.73779"
       id="text19221" />
  </g>
</svg>
